<svg version="1.1" id="Layer_1" xmlns="http://www.w3.org/2000/svg" xmlns:xlink="http://www.w3.org/1999/xlink" x="0px" y="0px"
	 width="100%" viewBox="0 0 300 300" enable-background="new 0 0 300 300" xml:space="preserve">
<path fill="#000000" opacity="1.000000" stroke="none" 
	d="
M173.000000,301.000000 
	C115.333344,301.000000 58.166687,301.000000 1.000023,301.000000 
	C1.000015,201.000031 1.000015,101.000053 1.000008,1.000063 
	C100.999947,1.000042 200.999893,1.000042 300.999878,1.000021 
	C300.999939,100.999939 300.999939,200.999878 300.999969,300.999908 
	C258.500000,301.000000 216.000000,301.000000 173.000000,301.000000 
M283.002411,168.500000 
	C283.002411,126.008179 283.054962,83.516258 282.971283,41.024605 
	C282.945282,27.814959 274.183624,19.040205 260.982239,19.028564 
	C187.663071,18.963919 114.343781,18.964382 41.024609,19.028118 
	C27.815098,19.039602 19.040207,27.816341 19.028566,41.017742 
	C18.963917,114.336906 18.964384,187.656189 19.028116,260.975342 
	C19.039597,274.184906 27.816418,282.959778 41.017704,282.971436 
	C114.336868,283.036072 187.656158,283.035553 260.975311,282.971863 
	C274.184906,282.960388 282.928375,274.183960 282.971069,260.982300 
	C283.069702,230.488480 283.002411,199.994125 283.002411,168.500000 
z"/>
<path fill="#FDFEFE" opacity="1.000000" stroke="none" 
	d="
M283.002411,169.000000 
	C283.002411,199.994125 283.069702,230.488480 282.971069,260.982300 
	C282.928375,274.183960 274.184906,282.960388 260.975311,282.971863 
	C187.656158,283.035553 114.336868,283.036072 41.017704,282.971436 
	C27.816418,282.959778 19.039597,274.184906 19.028116,260.975342 
	C18.964384,187.656189 18.963917,114.336906 19.028566,41.017742 
	C19.040207,27.816341 27.815098,19.039602 41.024609,19.028118 
	C114.343781,18.964382 187.663071,18.963919 260.982239,19.028564 
	C274.183624,19.040205 282.945282,27.814959 282.971283,41.024605 
	C283.054962,83.516258 283.002411,126.008179 283.002411,169.000000 
M115.846558,193.830048 
	C116.118050,194.118134 116.389534,194.406219 116.661018,194.694305 
	C116.561836,194.013733 116.462654,193.333145 116.242027,191.940414 
	C104.170280,165.697723 92.098534,139.455032 79.953659,113.053368 
	C69.959984,113.895103 62.017326,117.665703 56.324326,126.001923 
	C65.532806,136.514694 74.360100,146.676971 83.281715,156.755783 
	C94.068352,168.941513 104.934830,181.056564 115.846558,193.830048 
M173.831879,57.941700 
	C170.259613,54.887867 167.153961,50.641209 163.019730,49.023922 
	C153.892792,45.453529 144.481415,45.967346 136.974274,53.171791 
	C129.531738,60.314228 129.520782,69.557373 132.032806,78.725899 
	C134.809906,88.861855 142.515900,93.371437 155.288757,93.177902 
	C165.223251,93.027374 172.540283,87.560654 175.127930,78.162796 
	C176.940384,71.580307 176.826019,65.032906 173.831879,57.941700 
M88.793282,108.420052 
	C102.820244,106.076859 107.480362,95.487289 104.211838,81.286118 
	C102.095085,72.089203 93.445686,67.057693 82.476700,67.950142 
	C72.660454,68.748810 65.665359,75.222641 64.688156,84.413078 
	C63.019733,100.104362 72.001930,109.417068 88.793282,108.420052 
M217.597748,121.342766 
	C225.312347,121.580162 231.750244,119.105682 235.690781,112.137375 
	C239.479950,105.436783 238.309677,94.400505 233.350998,88.582947 
	C227.504883,81.724228 219.880020,80.321465 211.593536,82.423958 
	C202.182724,84.811714 197.230331,92.998123 197.986649,103.998901 
	C198.640793,113.513557 205.655045,120.002647 217.597748,121.342766 
M150.701859,170.883072 
	C151.436325,175.761246 152.170792,180.639420 152.905243,185.517593 
	C153.214188,185.467773 153.523117,185.417969 153.832062,185.368164 
	C157.978455,156.620575 162.124847,127.872978 166.248856,99.280579 
	C157.403870,95.723923 146.655014,95.906677 139.917542,99.621437 
	C143.448593,123.015678 146.995819,146.517105 150.701859,170.883072 
M212.521530,138.995819 
	C204.370407,156.896713 196.219284,174.797623 188.068146,192.698517 
	C188.540833,193.074783 189.013504,193.451050 189.486191,193.827316 
	C207.458511,174.580612 225.430817,155.333908 243.439682,136.048065 
	C237.931946,130.361420 231.666336,127.672157 224.626526,126.277908 
	C220.484253,125.457527 217.645966,126.079239 216.269730,130.568085 
	C215.448044,133.248184 214.011032,135.739624 212.521530,138.995819 
M66.889107,145.604324 
	C62.826485,139.970413 58.763866,134.336502 54.366421,128.238251 
	C49.551735,136.535431 48.315495,144.963181 48.055115,153.701630 
	C47.966377,156.679703 48.919365,158.536926 51.317051,160.333527 
	C61.979465,168.322876 72.459259,176.555389 83.046249,184.646133 
	C90.634926,190.445496 98.288773,196.159592 105.913551,201.911728 
	C106.211258,201.623840 106.508972,201.335968 106.806679,201.048080 
	C93.634727,182.764267 80.462776,164.480469 66.889107,145.604324 
M139.986816,160.464310 
	C138.960251,140.385666 137.933685,120.307030 136.843445,98.983131 
	C133.180756,101.517403 130.034485,103.278481 127.383324,105.604012 
	C118.157768,113.696442 116.376587,121.233437 120.584572,132.768814 
	C123.093666,139.647018 125.552147,146.543762 128.078262,153.415665 
	C132.116348,164.400620 136.191742,175.371857 140.251358,186.348892 
	C140.592178,186.278595 140.932983,186.208298 141.273788,186.138000 
	C140.851822,177.905060 140.429855,169.672119 139.986816,160.464310 
M168.161911,122.714653 
	C167.136993,144.118149 166.112076,165.521652 165.087158,186.925156 
	C172.775497,168.321259 179.618759,149.606293 186.478043,130.897202 
	C191.036102,118.464867 182.749466,103.404030 169.476624,100.402359 
	C169.054947,107.547897 168.635391,114.657722 168.161911,122.714653 
M117.178795,172.315887 
	C120.175049,177.287537 123.171295,182.259186 126.167549,187.230835 
	C126.642822,187.024673 127.118088,186.818512 127.593361,186.612350 
	C126.422379,180.840256 125.474907,175.011749 124.035683,169.307312 
	C120.629013,155.804886 117.663643,142.134811 113.240997,128.961868 
	C109.321152,117.286507 94.760712,110.378593 83.658600,113.738304 
	C94.754814,133.093979 105.808479,152.375443 117.178795,172.315887 
M252.814362,161.905289 
	C255.463135,155.187698 251.910141,143.896011 245.255829,138.574799 
	C229.692169,159.555084 214.137955,180.522675 198.583725,201.490250 
	C198.967865,201.864075 199.352005,202.237915 199.736145,202.611740 
	C217.217606,189.190292 234.699051,175.768860 252.814362,161.905289 
M211.200577,132.634552 
	C212.303375,130.644455 213.406158,128.654373 214.634750,126.437256 
	C201.724854,125.796547 189.547958,132.788925 186.672852,143.620483 
	C182.626556,158.864365 179.710205,174.408157 176.310669,189.823700 
	C176.755066,190.059052 177.199463,190.294403 177.643875,190.529770 
	C188.710693,171.451233 199.777512,152.372696 211.200577,132.634552 
M76.163719,201.309021 
	C83.744125,204.764725 91.324532,208.220413 98.904945,211.676117 
	C99.146957,211.368484 99.388969,211.060837 99.630974,210.753204 
	C82.866943,194.695343 66.102913,178.637482 48.245331,161.532120 
	C48.245331,170.342865 48.412251,177.594376 48.165699,184.831802 
	C48.062653,187.856598 49.234539,189.226151 51.846092,190.353287 
	C59.775711,193.775726 67.604027,197.432877 76.163719,201.309021 
M239.629593,197.099594 
	C243.400742,195.357361 247.224731,193.717468 250.912201,191.813202 
	C252.083633,191.208282 253.702301,189.926056 253.735886,188.908203 
	C253.978119,181.565964 253.865707,174.212021 253.865707,165.764542 
	C237.964615,180.922531 222.994934,195.192612 208.025269,209.462708 
	C208.273804,209.903854 208.522339,210.345016 208.770889,210.786179 
	C219.268890,207.407883 228.851654,201.780533 239.629593,197.099594 
M70.813080,217.679337 
	C78.529922,219.441299 86.246765,221.203262 93.963608,222.965210 
	C94.060654,222.672546 94.157700,222.379883 94.254738,222.087234 
	C79.157700,212.297058 64.060661,202.506882 48.109753,192.162994 
	C48.109753,198.511703 48.247959,203.766190 48.053017,209.008286 
	C47.951462,211.739059 48.943455,212.705261 51.586826,213.211563 
	C57.775349,214.396896 63.886761,215.984818 70.813080,217.679337 
M83.433029,235.983170 
	C86.618523,235.983170 89.804024,235.983170 92.989517,235.983170 
	C93.026093,235.665543 93.062668,235.347916 93.099243,235.030273 
	C78.292664,228.820511 63.486080,222.610733 48.401260,216.284271 
	C48.401260,223.399368 48.401260,229.482132 48.401260,235.983170 
	C59.939121,235.983170 71.196274,235.983170 83.433029,235.983170 
M236.387939,217.850067 
	C242.151581,216.499680 247.915237,215.149292 253.617065,213.813385 
	C253.617065,207.503281 253.617065,201.636581 253.617065,194.855835 
	C239.097443,204.218079 225.193176,213.183548 211.288910,222.149002 
	C211.482178,222.534622 211.675446,222.920242 211.868713,223.305862 
	C219.766403,221.538742 227.664093,219.771622 236.387939,217.850067 
M246.415131,235.985565 
	C248.824280,235.985565 251.233414,235.985565 253.592987,235.985565 
	C253.592987,229.680923 253.592987,224.145645 253.592987,218.090698 
	C239.628586,223.859482 226.105057,229.446167 212.581512,235.032837 
	C212.654160,235.350418 212.726791,235.667984 212.799423,235.985565 
	C223.678986,235.985565 234.558548,235.985565 246.415131,235.985565 
z"/>
<path fill="#037AAB" opacity="1.000000" stroke="none" 
	d="
M173.988525,58.293861 
	C176.826019,65.032906 176.940384,71.580307 175.127930,78.162796 
	C172.540283,87.560654 165.223251,93.027374 155.288757,93.177902 
	C142.515900,93.371437 134.809906,88.861855 132.032806,78.725899 
	C129.520782,69.557373 129.531738,60.314228 136.974274,53.171791 
	C144.481415,45.967346 153.892792,45.453529 163.019730,49.023922 
	C167.153961,50.641209 170.259613,54.887867 173.988525,58.293861 
z"/>
<path fill="#037AAB" opacity="1.000000" stroke="none" 
	d="
M88.383148,108.487381 
	C72.001930,109.417068 63.019733,100.104362 64.688156,84.413078 
	C65.665359,75.222641 72.660454,68.748810 82.476700,67.950142 
	C93.445686,67.057693 102.095085,72.089203 104.211838,81.286118 
	C107.480362,95.487289 102.820244,106.076859 88.383148,108.487381 
z"/>
<path fill="#057BAB" opacity="1.000000" stroke="none" 
	d="
M115.766762,193.202194 
	C104.934830,181.056564 94.068352,168.941513 83.281715,156.755783 
	C74.360100,146.676971 65.532806,136.514694 56.324326,126.001923 
	C62.017326,117.665703 69.959984,113.895103 79.953659,113.053368 
	C92.098534,139.455032 104.170280,165.697723 116.154846,192.435287 
	C116.067665,192.930161 115.766762,193.202194 115.766762,193.202194 
z"/>
<path fill="#037AAB" opacity="1.000000" stroke="none" 
	d="
M217.145813,121.324142 
	C205.655045,120.002647 198.640793,113.513557 197.986649,103.998901 
	C197.230331,92.998123 202.182724,84.811714 211.593536,82.423958 
	C219.880020,80.321465 227.504883,81.724228 233.350998,88.582947 
	C238.309677,94.400505 239.479950,105.436783 235.690781,112.137375 
	C231.750244,119.105682 225.312347,121.580162 217.145813,121.324142 
z"/>
<path fill="#067BAB" opacity="1.000000" stroke="none" 
	d="
M150.622452,170.450806 
	C146.995819,146.517105 143.448593,123.015678 139.917542,99.621437 
	C146.655014,95.906677 157.403870,95.723923 166.248856,99.280579 
	C162.124847,127.872978 157.978455,156.620575 153.832062,185.368164 
	C153.523117,185.417969 153.214188,185.467773 152.905243,185.517593 
	C152.170792,180.639420 151.436325,175.761246 150.622452,170.450806 
z"/>
<path fill="#057BAB" opacity="1.000000" stroke="none" 
	d="
M212.686066,138.655853 
	C214.011032,135.739624 215.448044,133.248184 216.269730,130.568085 
	C217.645966,126.079239 220.484253,125.457527 224.626526,126.277908 
	C231.666336,127.672157 237.931946,130.361420 243.439682,136.048065 
	C225.430817,155.333908 207.458511,174.580612 189.486191,193.827316 
	C189.013504,193.451050 188.540833,193.074783 188.068146,192.698517 
	C196.219284,174.797623 204.370407,156.896713 212.686066,138.655853 
z"/>
<path fill="#067CAC" opacity="1.000000" stroke="none" 
	d="
M67.089966,145.900482 
	C80.462776,164.480469 93.634727,182.764267 106.806679,201.048080 
	C106.508972,201.335968 106.211258,201.623840 105.913551,201.911728 
	C98.288773,196.159592 90.634926,190.445496 83.046249,184.646133 
	C72.459259,176.555389 61.979465,168.322876 51.317051,160.333527 
	C48.919365,158.536926 47.966377,156.679703 48.055115,153.701630 
	C48.315495,144.963181 49.551735,136.535431 54.366421,128.238251 
	C58.763866,134.336502 62.826485,139.970413 67.089966,145.900482 
z"/>
<path fill="#077CAC" opacity="1.000000" stroke="none" 
	d="
M139.997345,160.951752 
	C140.429855,169.672119 140.851822,177.905060 141.273788,186.138000 
	C140.932983,186.208298 140.592178,186.278595 140.251358,186.348892 
	C136.191742,175.371857 132.116348,164.400620 128.078262,153.415665 
	C125.552147,146.543762 123.093666,139.647018 120.584572,132.768814 
	C116.376587,121.233437 118.157768,113.696442 127.383324,105.604012 
	C130.034485,103.278481 133.180756,101.517403 136.843445,98.983131 
	C137.933685,120.307030 138.960251,140.385666 139.997345,160.951752 
z"/>
<path fill="#067BAB" opacity="1.000000" stroke="none" 
	d="
M168.188873,122.241104 
	C168.635391,114.657722 169.054947,107.547897 169.476624,100.402359 
	C182.749466,103.404030 191.036102,118.464867 186.478043,130.897202 
	C179.618759,149.606293 172.775497,168.321259 165.087158,186.925156 
	C166.112076,165.521652 167.136993,144.118149 168.188873,122.241104 
z"/>
<path fill="#067BAC" opacity="1.000000" stroke="none" 
	d="
M117.020462,171.986389 
	C105.808479,152.375443 94.754814,133.093979 83.658600,113.738304 
	C94.760712,110.378593 109.321152,117.286507 113.240997,128.961868 
	C117.663643,142.134811 120.629013,155.804886 124.035683,169.307312 
	C125.474907,175.011749 126.422379,180.840256 127.593361,186.612350 
	C127.118088,186.818512 126.642822,187.024673 126.167549,187.230835 
	C123.171295,182.259186 120.175049,177.287537 117.020462,171.986389 
z"/>
<path fill="#077CAC" opacity="1.000000" stroke="none" 
	d="
M252.497437,162.126343 
	C234.699051,175.768860 217.217606,189.190292 199.736145,202.611740 
	C199.352005,202.237915 198.967865,201.864075 198.583725,201.490250 
	C214.137955,180.522675 229.692169,159.555084 245.255829,138.574799 
	C251.910141,143.896011 255.463135,155.187698 252.497437,162.126343 
z"/>
<path fill="#077CAC" opacity="1.000000" stroke="none" 
	d="
M211.022461,132.964355 
	C199.777512,152.372696 188.710693,171.451233 177.643875,190.529770 
	C177.199463,190.294403 176.755066,190.059052 176.310669,189.823700 
	C179.710205,174.408157 182.626556,158.864365 186.672852,143.620483 
	C189.547958,132.788925 201.724854,125.796547 214.634750,126.437256 
	C213.406158,128.654373 212.303375,130.644455 211.022461,132.964355 
z"/>
<path fill="#0A7DAD" opacity="1.000000" stroke="none" 
	d="
M75.817757,201.153824 
	C67.604027,197.432877 59.775711,193.775726 51.846092,190.353287 
	C49.234539,189.226151 48.062653,187.856598 48.165699,184.831802 
	C48.412251,177.594376 48.245331,170.342865 48.245331,161.532120 
	C66.102913,178.637482 82.866943,194.695343 99.630974,210.753204 
	C99.388969,211.060837 99.146957,211.368484 98.904945,211.676117 
	C91.324532,208.220413 83.744125,204.764725 75.817757,201.153824 
z"/>
<path fill="#087CAC" opacity="1.000000" stroke="none" 
	d="
M239.286163,197.250946 
	C228.851654,201.780533 219.268890,207.407883 208.770889,210.786179 
	C208.522339,210.345016 208.273804,209.903854 208.025269,209.462708 
	C222.994934,195.192612 237.964615,180.922531 253.865707,165.764542 
	C253.865707,174.212021 253.978119,181.565964 253.735886,188.908203 
	C253.702301,189.926056 252.083633,191.208282 250.912201,191.813202 
	C247.224731,193.717468 243.400742,195.357361 239.286163,197.250946 
z"/>
<path fill="#097DAD" opacity="1.000000" stroke="none" 
	d="
M70.421234,217.544525 
	C63.886761,215.984818 57.775349,214.396896 51.586826,213.211563 
	C48.943455,212.705261 47.951462,211.739059 48.053017,209.008286 
	C48.247959,203.766190 48.109753,198.511703 48.109753,192.162994 
	C64.060661,202.506882 79.157700,212.297058 94.254738,222.087234 
	C94.157700,222.379883 94.060654,222.672546 93.963608,222.965210 
	C86.246765,221.203262 78.529922,219.441299 70.421234,217.544525 
z"/>
<path fill="#077CAC" opacity="1.000000" stroke="none" 
	d="
M82.943230,235.983170 
	C71.196274,235.983170 59.939121,235.983170 48.401260,235.983170 
	C48.401260,229.482132 48.401260,223.399368 48.401260,216.284271 
	C63.486080,222.610733 78.292664,228.820511 93.099243,235.030273 
	C93.062668,235.347916 93.026093,235.665543 92.989517,235.983170 
	C89.804024,235.983170 86.618523,235.983170 82.943230,235.983170 
z"/>
<path fill="#097DAD" opacity="1.000000" stroke="none" 
	d="
M235.974854,217.927292 
	C227.664093,219.771622 219.766403,221.538742 211.868713,223.305862 
	C211.675446,222.920242 211.482178,222.534622 211.288910,222.149002 
	C225.193176,213.183548 239.097443,204.218079 253.617065,194.855835 
	C253.617065,201.636581 253.617065,207.503281 253.617065,213.813385 
	C247.915237,215.149292 242.151581,216.499680 235.974854,217.927292 
z"/>
<path fill="#087DAD" opacity="1.000000" stroke="none" 
	d="
M245.926620,235.985565 
	C234.558548,235.985565 223.678986,235.985565 212.799423,235.985565 
	C212.726791,235.667984 212.654160,235.350418 212.581512,235.032837 
	C226.105057,229.446167 239.628586,223.859482 253.592987,218.090698 
	C253.592987,224.145645 253.592987,229.680923 253.592987,235.985565 
	C251.233414,235.985565 248.824280,235.985565 245.926620,235.985565 
z"/>
<path fill="#057BAB" opacity="1.000000" stroke="none" 
	d="
M116.215561,192.791367 
	C116.462654,193.333145 116.561836,194.013733 116.661018,194.694305 
	C116.389534,194.406219 116.118050,194.118134 115.806656,193.516113 
	C115.766762,193.202194 116.067665,192.930161 116.215561,192.791367 
z"/>
</svg>
