<svg xmlns="http://www.w3.org/2000/svg" width="1239" height="461" viewBox="0 0 1239 461">
  <rect width="100%" height="100%" fill="#1b3b78"/>
  <path d="M 226.00,281.50 L 225.00,281.50 L 224.00,281.50 L 223.00,281.50 L 222.00,281.50 L 221.00,281.50 L 220.00,281.50 L 219.00,281.50 L 218.00,281.50 L 217.00,281.50 L 216.00,281.50 L 215.00,281.50 L 214.00,281.50 L 213.00,281.50 L 212.00,281.50 L 211.50,281.00 L 211.00,280.50 L 210.00,280.50 L 209.00,280.50 L 208.00,280.50 L 207.00,280.50 L 206.00,280.50 L 205.50,280.00 L 205.00,279.50 L 204.00,279.50 L 203.00,279.50 L 202.50,279.00 L 202.00,278.50 L 201.00,278.50 L 200.50,278.00 L 200.00,277.50 L 199.50,277.00 L 199.00,276.50 L 198.50,276.00 L 198.50,275.00 L 198.00,274.50 L 197.50,274.00 L 197.50,273.00 L 197.50,272.00 L 197.50,271.00 L 197.50,270.00 L 197.00,269.50 L 196.50,269.00 L 196.50,268.00 L 196.50,267.00 L 196.50,266.00 L 196.50,265.00 L 196.50,264.00 L 196.50,263.00 L 196.50,262.00 L 196.50,261.00 L 196.50,260.00 L 196.50,259.00 L 196.50,258.00 L 196.50,257.00 L 196.50,256.00 L 196.50,255.00 L 196.50,254.00 L 196.50,253.00 L 196.50,252.00 L 196.50,251.00 L 196.50,250.00 L 196.50,249.00 L 196.50,248.00 L 196.50,247.00 L 196.50,246.00 L 196.50,245.00 L 196.50,244.00 L 196.00,243.50 L 195.50,243.00 L 195.00,242.50 L 194.50,242.00 L 194.00,241.50 L 193.00,241.50 L 192.00,241.50 L 191.00,241.50 L 190.50,241.00 L 190.00,240.50 L 189.00,240.50 L 188.00,240.50 L 187.00,240.50 L 186.00,240.50 L 185.00,240.50 L 184.00,240.50 L 183.00,240.50 L 182.00,240.50 L 181.00,240.50 L 180.00,240.50 L 179.00,240.50 L 178.00,240.50 L 177.00,240.50 L 176.00,240.50 L 175.00,240.50 L 174.00,240.50 L 173.00,240.50 L 172.00,240.50 L 171.00,240.50 L 170.00,240.50 L 169.00,240.50 L 168.00,240.50 L 167.00,240.50 L 166.00,240.50 L 165.00,240.50 L 164.00,240.50 L 163.50,240.00 L 163.00,239.50 L 162.00,239.50 L 161.50,239.00 L 161.00,238.50 L 160.50,238.00 L 160.00,237.50 L 159.50,237.00 L 159.00,236.50 L 158.50,236.00 L 158.50,235.00 L 158.00,234.50 L 157.50,234.00 L 157.50,233.00 L 157.50,232.00 L 157.50,231.00 L 157.50,230.00 L 157.50,229.00 L 157.50,228.00 L 157.50,227.00 L 157.00,226.50 L 156.50,226.00 L 156.50,225.00 L 156.50,224.00 L 156.50,223.00 L 156.50,222.00 L 156.50,221.00 L 156.50,220.00 L 156.50,219.00 L 156.50,218.00 L 156.50,217.00 L 156.50,216.00 L 156.50,215.00 L 156.50,214.00 L 156.50,213.00 L 156.50,212.00 L 156.50,211.00 L 156.50,210.00 L 156.50,209.00 L 156.50,208.00 L 157.00,207.50 L 157.50,207.00 L 157.50,206.00 L 157.50,205.00 L 157.50,204.00 L 157.50,203.00 L 157.50,202.00 L 158.00,201.50 L 158.50,201.00 L 158.50,200.00 L 159.00,199.50 L 159.50,199.00 L 160.00,198.50 L 160.50,198.00 L 161.00,197.50 L 161.50,197.00 L 162.00,196.50 L 162.50,196.00 L 163.00,195.50 L 164.00,195.50 L 165.00,195.50 L 165.50,195.00 L 166.00,194.50 L 167.00,194.50 L 168.00,194.50 L 169.00,194.50 L 170.00,194.50 L 171.00,194.50 L 172.00,194.50 L 173.00,194.50 L 174.00,194.50 L 175.00,194.50 L 176.00,194.50 L 177.00,194.50 L 178.00,194.50 L 179.00,194.50 L 180.00,194.50 L 181.00,194.50 L 182.00,194.50 L 183.00,194.50 L 184.00,194.50 L 185.00,194.50 L 186.00,194.50 L 187.00,194.50 L 188.00,194.50 L 189.00,194.50 L 190.00,194.50 L 191.00,194.50 L 192.00,194.50 L 193.00,194.50 L 193.50,194.00 L 194.00,193.50 L 195.00,193.50 L 195.50,193.00 L 196.00,192.50 L 196.50,192.00 L 196.50,191.00 L 196.50,190.00 L 196.50,189.00 L 196.50,188.00 L 196.50,187.00 L 196.50,186.00 L 196.50,185.00 L 196.50,184.00 L 196.50,183.00 L 196.50,182.00 L 196.50,181.00 L 196.50,180.00 L 196.50,179.00 L 196.50,178.00 L 196.50,177.00 L 196.50,176.00 L 196.50,175.00 L 196.50,174.00 L 196.50,173.00 L 196.50,172.00 L 197.00,171.50 L 197.50,171.00 L 197.50,170.00 L 197.50,169.00 L 197.50,168.00 L 197.50,167.00 L 197.00,166.50 L 196.50,166.00 L 197.00,165.50 L 197.50,165.00 L 197.50,164.00 L 197.50,163.00 L 197.50,162.00 L 198.00,161.50 L 198.50,161.00 L 198.50,160.00 L 199.00,159.50 L 199.50,159.00 L 199.50,158.00 L 200.00,157.50 L 201.00,157.50 L 201.50,157.00 L 202.00,156.50 L 203.00,156.50 L 203.50,156.00 L 204.00,155.50 L 205.00,155.50 L 206.00,155.50 L 206.50,155.00 L 207.00,154.50 L 208.00,154.50 L 209.00,154.50 L 210.00,154.50 L 211.00,154.50 L 212.00,154.50 L 213.00,154.50 L 214.00,154.50 L 215.00,154.50 L 216.00,154.50 L 217.00,154.50 L 218.00,154.50 L 219.00,154.50 L 220.00,154.50 L 221.00,154.50 L 222.00,154.50 L 223.00,154.50 L 224.00,154.50 L 225.00,154.50 L 226.00,154.50 L 227.00,154.50 L 228.00,154.50 L 229.00,154.50 L 230.00,154.50 L 231.00,154.50 L 232.00,154.50 L 232.50,155.00 L 233.00,155.50 L 234.00,155.50 L 235.00,155.50 L 236.00,155.50 L 236.50,156.00 L 237.00,156.50 L 238.00,156.50 L 238.50,157.00 L 239.00,157.50 L 239.50,158.00 L 240.00,158.50 L 240.50,159.00 L 241.00,159.50 L 241.50,160.00 L 241.50,161.00 L 241.50,162.00 L 242.00,162.50 L 242.50,163.00 L 242.50,164.00 L 242.50,165.00 L 242.50,166.00 L 242.50,167.00 L 242.50,168.00 L 242.50,169.00 L 242.50,170.00 L 242.50,171.00 L 242.50,172.00 L 242.50,173.00 L 242.50,174.00 L 242.50,175.00 L 242.50,176.00 L 242.50,177.00 L 242.50,178.00 L 242.50,179.00 L 242.50,180.00 L 242.50,181.00 L 242.50,182.00 L 242.50,183.00 L 242.50,184.00 L 242.50,185.00 L 242.50,186.00 L 242.50,187.00 L 242.50,188.00 L 242.50,189.00 L 242.50,190.00 L 243.00,190.50 L 243.50,191.00 L 243.50,192.00 L 244.00,192.50 L 244.50,193.00 L 245.00,193.50 L 245.50,194.00 L 246.00,194.50 L 247.00,194.50 L 248.00,194.50 L 249.00,194.50 L 250.00,194.50 L 251.00,194.50 L 252.00,194.50 L 253.00,194.50 L 254.00,194.50 L 255.00,194.50 L 256.00,194.50 L 257.00,194.50 L 258.00,194.50 L 259.00,194.50 L 260.00,194.50 L 261.00,194.50 L 262.00,194.50 L 263.00,194.50 L 264.00,194.50 L 265.00,194.50 L 266.00,194.50 L 267.00,194.50 L 268.00,194.50 L 269.00,194.50 L 270.00,194.50 L 271.00,194.50 L 272.00,194.50 L 273.00,194.50 L 274.00,194.50 L 274.50,195.00 L 275.00,195.50 L 276.00,195.50 L 276.50,196.00 L 277.00,196.50 L 278.00,196.50 L 278.50,197.00 L 279.00,197.50 L 279.50,198.00 L 280.00,198.50 L 280.50,199.00 L 281.00,199.50 L 281.50,200.00 L 281.50,201.00 L 281.50,202.00 L 282.00,202.50 L 282.50,203.00 L 282.50,204.00 L 282.50,205.00 L 282.50,206.00 L 282.50,207.00 L 282.50,208.00 L 282.50,209.00 L 282.50,210.00 L 282.50,211.00 L 282.50,212.00 L 282.50,213.00 L 282.50,214.00 L 282.50,215.00 L 282.50,216.00 L 282.50,217.00 L 282.50,218.00 L 282.50,219.00 L 282.50,220.00 L 282.50,221.00 L 282.50,222.00 L 282.50,223.00 L 282.50,224.00 L 282.50,225.00 L 282.50,226.00 L 282.50,227.00 L 282.50,228.00 L 282.50,229.00 L 282.50,230.00 L 282.50,231.00 L 282.50,232.00 L 282.50,233.00 L 282.00,233.50 L 281.50,234.00 L 281.50,235.00 L 281.00,235.50 L 280.50,236.00 L 280.50,237.00 L 280.00,237.50 L 279.50,238.00 L 279.00,238.50 L 278.00,238.50 L 277.50,239.00 L 277.00,239.50 L 276.00,239.50 L 275.50,240.00 L 275.00,240.50 L 274.00,240.50 L 273.00,240.50 L 272.00,240.50 L 271.00,240.50 L 270.00,240.50 L 269.00,240.50 L 268.00,240.50 L 267.00,240.50 L 266.00,240.50 L 265.00,240.50 L 264.00,240.50 L 263.50,241.00 L 263.00,241.50 L 262.00,241.50 L 261.00,241.50 L 260.00,241.50 L 259.00,241.50 L 258.00,241.50 L 257.00,241.50 L 256.00,241.50 L 255.00,241.50 L 254.50,241.00 L 254.00,240.50 L 253.00,240.50 L 252.00,240.50 L 251.00,240.50 L 250.00,240.50 L 249.00,240.50 L 248.50,241.00 L 248.00,241.50 L 247.00,241.50 L 246.00,241.50 L 245.50,242.00 L 245.00,242.50 L 244.50,243.00 L 244.00,243.50 L 243.50,244.00 L 243.50,245.00 L 243.00,245.50 L 242.50,246.00 L 242.50,247.00 L 242.50,248.00 L 242.50,249.00 L 242.50,250.00 L 242.50,251.00 L 242.50,252.00 L 242.50,253.00 L 242.50,254.00 L 242.50,255.00 L 242.50,256.00 L 242.50,257.00 L 242.50,258.00 L 242.50,259.00 L 242.50,260.00 L 242.50,261.00 L 242.50,262.00 L 242.50,263.00 L 242.50,264.00 L 242.50,265.00 L 242.50,266.00 L 242.50,267.00 L 242.50,268.00 L 242.50,269.00 L 242.50,270.00 L 242.50,271.00 L 242.50,272.00 L 242.50,273.00 L 242.00,273.50 L 241.50,274.00 L 241.50,275.00 L 241.00,275.50 L 240.50,276.00 L 240.00,276.50 L 239.50,277.00 L 239.00,277.50 L 238.50,278.00 L 238.00,278.50 L 237.00,278.50 L 236.50,279.00 L 236.00,279.50 L 235.00,279.50 L 234.50,280.00 L 234.00,280.50 L 233.00,280.50 L 232.00,280.50 L 231.00,280.50 L 230.00,280.50 L 229.00,280.50 L 228.00,280.50 L 227.00,280.50 L 226.50,281.00 L 226.00,281.50 Z" fill="#FFFFFF" fill-rule="evenodd"/>
  <path d="M 232.50,274.00 L 233.00,273.50 L 234.00,273.50 L 234.50,273.00 L 235.00,272.50 L 235.50,272.00 L 235.50,271.00 L 235.50,270.00 L 236.00,269.50 L 236.50,269.00 L 236.50,268.00 L 236.50,267.00 L 236.50,266.00 L 236.50,265.00 L 236.50,264.00 L 236.50,263.00 L 236.50,262.00 L 236.50,261.00 L 236.50,260.00 L 236.50,259.00 L 236.50,258.00 L 236.50,257.00 L 236.50,256.00 L 236.50,255.00 L 236.50,254.00 L 236.50,253.00 L 236.50,252.00 L 236.50,251.00 L 236.50,250.00 L 236.50,249.00 L 236.50,248.00 L 236.50,247.00 L 236.50,246.00 L 236.50,245.00 L 236.50,244.00 L 236.50,243.00 L 236.50,242.00 L 237.00,241.50 L 237.50,241.00 L 237.50,240.00 L 238.00,239.50 L 238.50,239.00 L 239.00,238.50 L 239.50,238.00 L 240.00,237.50 L 240.50,237.00 L 241.00,236.50 L 242.00,236.50 L 242.50,236.00 L 243.00,235.50 L 244.00,235.50 L 245.00,235.50 L 246.00,235.50 L 246.50,235.00 L 247.00,234.50 L 248.00,234.50 L 249.00,234.50 L 250.00,234.50 L 251.00,234.50 L 252.00,234.50 L 253.00,234.50 L 254.00,234.50 L 255.00,234.50 L 256.00,234.50 L 257.00,234.50 L 258.00,234.50 L 259.00,234.50 L 260.00,234.50 L 261.00,234.50 L 262.00,234.50 L 263.00,234.50 L 264.00,234.50 L 265.00,234.50 L 266.00,234.50 L 267.00,234.50 L 268.00,234.50 L 269.00,234.50 L 270.00,234.50 L 271.00,234.50 L 272.00,234.50 L 273.00,234.50 L 273.50,234.00 L 274.00,233.50 L 274.50,233.00 L 275.00,232.50 L 275.50,232.00 L 275.50,231.00 L 275.50,230.00 L 275.50,229.00 L 275.50,228.00 L 275.50,227.00 L 276.00,226.50 L 276.50,226.00 L 276.50,225.00 L 276.50,224.00 L 276.00,223.50 L 275.50,223.00 L 275.50,222.00 L 275.50,221.00 L 275.50,220.00 L 275.50,219.00 L 275.50,218.00 L 275.50,217.00 L 275.50,216.00 L 275.50,215.00 L 275.50,214.00 L 275.50,213.00 L 275.50,212.00 L 275.50,211.00 L 275.50,210.00 L 275.50,209.00 L 275.50,208.00 L 275.50,207.00 L 275.50,206.00 L 275.50,205.00 L 275.50,204.00 L 275.00,203.50 L 274.50,203.00 L 274.00,202.50 L 273.50,202.00 L 273.00,201.50 L 272.00,201.50 L 271.00,201.50 L 270.00,201.50 L 269.00,201.50 L 268.00,201.50 L 267.00,201.50 L 266.00,201.50 L 265.00,201.50 L 264.00,201.50 L 263.00,201.50 L 262.00,201.50 L 261.00,201.50 L 260.00,201.50 L 259.00,201.50 L 258.00,201.50 L 257.00,201.50 L 256.00,201.50 L 255.00,201.50 L 254.00,201.50 L 253.00,201.50 L 252.00,201.50 L 251.50,201.00 L 251.00,200.50 L 250.00,200.50 L 249.00,200.50 L 248.00,200.50 L 247.00,200.50 L 246.00,200.50 L 245.00,200.50 L 244.00,200.50 L 243.00,200.50 L 242.50,200.00 L 242.00,199.50 L 241.00,199.50 L 240.50,199.00 L 240.00,198.50 L 239.50,198.00 L 239.00,197.50 L 238.50,197.00 L 238.00,196.50 L 237.50,196.00 L 237.50,195.00 L 237.50,194.00 L 237.00,193.50 L 236.50,193.00 L 236.50,192.00 L 236.50,191.00 L 236.50,190.00 L 236.50,189.00 L 236.50,188.00 L 236.50,187.00 L 236.50,186.00 L 236.50,185.00 L 236.50,184.00 L 236.50,183.00 L 236.50,182.00 L 236.50,181.00 L 236.50,180.00 L 236.50,179.00 L 236.50,178.00 L 236.50,177.00 L 236.50,176.00 L 236.50,175.00 L 236.50,174.00 L 236.50,173.00 L 236.50,172.00 L 236.50,171.00 L 236.50,170.00 L 236.50,169.00 L 236.50,168.00 L 236.50,167.00 L 236.50,166.00 L 236.00,165.50 L 235.50,165.00 L 235.50,164.00 L 235.50,163.00 L 235.00,162.50 L 234.00,162.50 L 233.50,162.00 L 233.00,161.50 L 232.00,161.50 L 231.00,161.50 L 230.00,161.50 L 229.00,161.50 L 228.00,161.50 L 227.00,161.50 L 226.00,161.50 L 225.00,161.50 L 224.00,161.50 L 223.00,161.50 L 222.00,161.50 L 221.00,161.50 L 220.00,161.50 L 219.00,161.50 L 218.00,161.50 L 217.00,161.50 L 216.00,161.50 L 215.00,161.50 L 214.00,161.50 L 213.00,161.50 L 212.00,161.50 L 211.00,161.50 L 210.00,161.50 L 209.00,161.50 L 208.00,161.50 L 207.00,161.50 L 206.00,161.50 L 205.50,162.00 L 205.00,162.50 L 204.50,163.00 L 204.00,163.50 L 203.50,164.00 L 203.50,165.00 L 203.50,166.00 L 203.00,166.50 L 202.50,167.00 L 202.50,168.00 L 202.50,169.00 L 202.50,170.00 L 202.50,171.00 L 202.50,172.00 L 202.50,173.00 L 202.50,174.00 L 202.50,175.00 L 202.50,176.00 L 202.50,177.00 L 202.50,178.00 L 202.50,179.00 L 202.50,180.00 L 202.50,181.00 L 202.50,182.00 L 202.50,183.00 L 202.50,184.00 L 202.50,185.00 L 202.50,186.00 L 202.50,187.00 L 202.50,188.00 L 202.50,189.00 L 202.50,190.00 L 202.50,191.00 L 202.50,192.00 L 202.50,193.00 L 202.00,193.50 L 201.50,194.00 L 201.50,195.00 L 201.50,196.00 L 201.00,196.50 L 200.50,197.00 L 200.00,197.50 L 199.50,198.00 L 199.00,198.50 L 198.50,199.00 L 198.00,199.50 L 197.00,199.50 L 196.50,200.00 L 196.00,200.50 L 195.00,200.50 L 194.00,200.50 L 193.00,200.50 L 192.00,200.50 L 191.00,200.50 L 190.00,200.50 L 189.00,200.50 L 188.00,200.50 L 187.50,201.00 L 187.00,201.50 L 186.00,201.50 L 185.00,201.50 L 184.00,201.50 L 183.00,201.50 L 182.00,201.50 L 181.00,201.50 L 180.00,201.50 L 179.00,201.50 L 178.00,201.50 L 177.00,201.50 L 176.00,201.50 L 175.00,201.50 L 174.00,201.50 L 173.00,201.50 L 172.50,201.00 L 172.00,200.50 L 171.00,200.50 L 170.00,200.50 L 169.50,201.00 L 169.00,201.50 L 168.00,201.50 L 167.00,201.50 L 166.00,201.50 L 165.50,202.00 L 165.00,202.50 L 164.50,203.00 L 164.00,203.50 L 163.50,204.00 L 163.50,205.00 L 163.50,206.00 L 163.50,207.00 L 163.50,208.00 L 163.50,209.00 L 163.50,210.00 L 163.50,211.00 L 163.50,212.00 L 163.50,213.00 L 163.50,214.00 L 163.50,215.00 L 163.50,216.00 L 163.50,217.00 L 163.50,218.00 L 163.50,219.00 L 163.50,220.00 L 163.50,221.00 L 163.50,222.00 L 163.50,223.00 L 163.50,224.00 L 163.50,225.00 L 163.50,226.00 L 163.50,227.00 L 163.50,228.00 L 163.50,229.00 L 163.50,230.00 L 163.50,231.00 L 163.50,232.00 L 164.00,232.50 L 164.50,233.00 L 165.00,233.50 L 165.50,234.00 L 166.00,234.50 L 167.00,234.50 L 168.00,234.50 L 169.00,234.50 L 170.00,234.50 L 171.00,234.50 L 172.00,234.50 L 173.00,234.50 L 174.00,234.50 L 175.00,234.50 L 176.00,234.50 L 177.00,234.50 L 178.00,234.50 L 179.00,234.50 L 180.00,234.50 L 181.00,234.50 L 182.00,234.50 L 183.00,234.50 L 184.00,234.50 L 185.00,234.50 L 186.00,234.50 L 187.00,234.50 L 188.00,234.50 L 189.00,234.50 L 190.00,234.50 L 191.00,234.50 L 192.00,234.50 L 193.00,234.50 L 193.50,235.00 L 194.00,235.50 L 195.00,235.50 L 196.00,235.50 L 197.00,235.50 L 197.50,236.00 L 198.00,236.50 L 198.50,237.00 L 199.00,237.50 L 199.50,238.00 L 200.00,238.50 L 200.50,239.00 L 201.00,239.50 L 201.50,240.00 L 201.50,241.00 L 202.00,241.50 L 202.50,242.00 L 202.50,243.00 L 202.50,244.00 L 202.50,245.00 L 202.50,246.00 L 202.50,247.00 L 202.50,248.00 L 202.50,249.00 L 202.50,250.00 L 202.50,251.00 L 202.50,252.00 L 202.50,253.00 L 202.50,254.00 L 202.50,255.00 L 202.50,256.00 L 202.50,257.00 L 202.50,258.00 L 202.50,259.00 L 202.50,260.00 L 202.50,261.00 L 202.50,262.00 L 202.50,263.00 L 202.50,264.00 L 202.50,265.00 L 202.50,266.00 L 202.50,267.00 L 202.50,268.00 L 202.50,269.00 L 203.00,269.50 L 203.50,270.00 L 203.50,271.00 L 203.50,272.00 L 204.00,272.50 L 204.50,273.00 L 205.00,273.50 L 206.00,273.50 L 206.50,274.00 L 207.00,274.50 L 208.00,274.50 L 209.00,274.50 L 210.00,274.50 L 211.00,274.50 L 212.00,274.50 L 213.00,274.50 L 214.00,274.50 L 215.00,274.50 L 216.00,274.50 L 217.00,274.50 L 218.00,274.50 L 219.00,274.50 L 220.00,274.50 L 221.00,274.50 L 222.00,274.50 L 223.00,274.50 L 224.00,274.50 L 225.00,274.50 L 226.00,274.50 L 227.00,274.50 L 228.00,274.50 L 229.00,274.50 L 230.00,274.50 L 231.00,274.50 L 232.00,274.50 L 232.50,274.00 Z" fill="#FFFFFF" fill-rule="evenodd"/>
  <path d="M 435.00,256.50 L 434.00,256.50 L 433.00,256.50 L 432.00,256.50 L 431.00,256.50 L 430.50,256.00 L 430.00,255.50 L 429.00,255.50 L 428.50,255.00 L 428.50,254.00 L 428.50,253.00 L 428.50,252.00 L 428.00,251.50 L 427.50,251.00 L 427.50,250.00 L 427.50,249.00 L 428.00,248.50 L 428.50,248.00 L 428.50,247.00 L 428.50,246.00 L 428.00,245.50 L 427.50,245.00 L 427.50,244.00 L 427.50,243.00 L 427.50,242.00 L 427.50,241.00 L 427.50,240.00 L 427.50,239.00 L 427.50,238.00 L 427.50,237.00 L 427.50,236.00 L 427.50,235.00 L 427.50,234.00 L 427.50,233.00 L 427.50,232.00 L 427.50,231.00 L 427.50,230.00 L 427.50,229.00 L 427.50,228.00 L 427.50,227.00 L 427.50,226.00 L 427.50,225.00 L 427.50,224.00 L 427.50,223.00 L 427.50,222.00 L 427.50,221.00 L 427.50,220.00 L 427.50,219.00 L 427.50,218.00 L 427.50,217.00 L 427.50,216.00 L 427.50,215.00 L 427.50,214.00 L 427.50,213.00 L 427.50,212.00 L 427.50,211.00 L 427.50,210.00 L 427.50,209.00 L 427.50,208.00 L 427.50,207.00 L 427.50,206.00 L 427.50,205.00 L 427.50,204.00 L 427.50,203.00 L 427.50,202.00 L 427.50,201.00 L 427.50,200.00 L 427.50,199.00 L 427.50,198.00 L 427.50,197.00 L 427.50,196.00 L 427.50,195.00 L 427.50,194.00 L 427.50,193.00 L 427.50,192.00 L 427.50,191.00 L 427.50,190.00 L 427.50,189.00 L 427.50,188.00 L 427.50,187.00 L 427.50,186.00 L 427.50,185.00 L 427.50,184.00 L 427.50,183.00 L 427.50,182.00 L 427.50,181.00 L 427.50,180.00 L 428.00,179.50 L 428.50,179.00 L 429.00,178.50 L 430.00,178.50 L 431.00,178.50 L 432.00,178.50 L 433.00,178.50 L 434.00,178.50 L 435.00,178.50 L 436.00,178.50 L 437.00,178.50 L 437.50,179.00 L 438.00,179.50 L 438.50,180.00 L 438.50,181.00 L 438.50,182.00 L 438.50,183.00 L 438.50,184.00 L 438.50,185.00 L 438.50,186.00 L 438.50,187.00 L 438.50,188.00 L 438.50,189.00 L 438.50,190.00 L 438.50,191.00 L 438.50,192.00 L 438.50,193.00 L 438.50,194.00 L 438.50,195.00 L 438.50,196.00 L 438.50,197.00 L 438.50,198.00 L 438.50,199.00 L 438.50,200.00 L 438.50,201.00 L 438.50,202.00 L 438.50,203.00 L 438.50,204.00 L 438.50,205.00 L 438.50,206.00 L 438.50,207.00 L 438.50,208.00 L 438.50,209.00 L 438.50,210.00 L 439.00,210.50 L 439.50,211.00 L 440.00,211.50 L 440.50,212.00 L 441.00,212.50 L 442.00,212.50 L 443.00,212.50 L 444.00,212.50 L 445.00,212.50 L 446.00,212.50 L 447.00,212.50 L 448.00,212.50 L 449.00,212.50 L 450.00,212.50 L 451.00,212.50 L 452.00,212.50 L 453.00,212.50 L 454.00,212.50 L 455.00,212.50 L 456.00,212.50 L 457.00,212.50 L 458.00,212.50 L 459.00,212.50 L 460.00,212.50 L 461.00,212.50 L 462.00,212.50 L 463.00,212.50 L 464.00,212.50 L 465.00,212.50 L 466.00,212.50 L 467.00,212.50 L 468.00,212.50 L 469.00,212.50 L 470.00,212.50 L 471.00,212.50 L 472.00,212.50 L 473.00,212.50 L 474.00,212.50 L 475.00,212.50 L 476.00,212.50 L 477.00,212.50 L 478.00,212.50 L 479.00,212.50 L 479.50,212.00 L 480.00,211.50 L 481.00,211.50 L 481.50,211.00 L 481.50,210.00 L 481.50,209.00 L 482.00,208.50 L 482.50,208.00 L 482.50,207.00 L 482.50,206.00 L 482.50,205.00 L 482.50,204.00 L 482.50,203.00 L 482.50,202.00 L 482.50,201.00 L 482.50,200.00 L 482.50,199.00 L 482.50,198.00 L 482.50,197.00 L 482.50,196.00 L 482.50,195.00 L 482.50,194.00 L 482.50,193.00 L 482.50,192.00 L 482.50,191.00 L 482.50,190.00 L 482.50,189.00 L 482.50,188.00 L 482.50,187.00 L 482.50,186.00 L 482.50,185.00 L 482.50,184.00 L 482.50,183.00 L 482.50,182.00 L 482.50,181.00 L 482.50,180.00 L 482.50,179.00 L 483.00,178.50 L 484.00,178.50 L 485.00,178.50 L 486.00,178.50 L 487.00,178.50 L 488.00,178.50 L 489.00,178.50 L 490.00,178.50 L 491.00,178.50 L 491.50,179.00 L 492.00,179.50 L 492.50,180.00 L 492.50,181.00 L 492.50,182.00 L 492.50,183.00 L 492.50,184.00 L 492.50,185.00 L 492.50,186.00 L 492.50,187.00 L 492.50,188.00 L 492.50,189.00 L 492.50,190.00 L 492.50,191.00 L 492.50,192.00 L 492.50,193.00 L 492.50,194.00 L 492.50,195.00 L 492.50,196.00 L 492.50,197.00 L 492.50,198.00 L 492.50,199.00 L 492.50,200.00 L 492.50,201.00 L 492.50,202.00 L 492.50,203.00 L 492.50,204.00 L 492.50,205.00 L 492.50,206.00 L 492.50,207.00 L 492.50,208.00 L 492.50,209.00 L 492.50,210.00 L 492.50,211.00 L 492.50,212.00 L 492.50,213.00 L 492.50,214.00 L 492.50,215.00 L 492.50,216.00 L 492.50,217.00 L 492.50,218.00 L 492.50,219.00 L 492.50,220.00 L 492.50,221.00 L 492.50,222.00 L 492.50,223.00 L 492.50,224.00 L 492.50,225.00 L 492.50,226.00 L 492.50,227.00 L 492.50,228.00 L 492.50,229.00 L 492.50,230.00 L 492.50,231.00 L 492.50,232.00 L 492.50,233.00 L 492.50,234.00 L 492.50,235.00 L 492.50,236.00 L 492.50,237.00 L 492.50,238.00 L 492.50,239.00 L 492.50,240.00 L 492.50,241.00 L 492.50,242.00 L 492.50,243.00 L 492.50,244.00 L 492.50,245.00 L 492.50,246.00 L 492.50,247.00 L 492.50,248.00 L 492.50,249.00 L 492.50,250.00 L 492.50,251.00 L 492.50,252.00 L 492.50,253.00 L 492.50,254.00 L 492.00,254.50 L 491.50,255.00 L 491.00,255.50 L 490.00,255.50 L 489.00,255.50 L 488.00,255.50 L 487.00,255.50 L 486.00,255.50 L 485.00,255.50 L 484.00,255.50 L 483.50,255.00 L 483.00,254.50 L 482.50,254.00 L 482.50,253.00 L 482.50,252.00 L 482.50,251.00 L 482.50,250.00 L 482.50,249.00 L 482.50,248.00 L 482.50,247.00 L 482.50,246.00 L 482.50,245.00 L 482.50,244.00 L 482.00,243.50 L 481.50,243.00 L 481.50,242.00 L 481.50,241.00 L 481.50,240.00 L 481.50,239.00 L 481.50,238.00 L 481.50,237.00 L 481.50,236.00 L 482.00,235.50 L 482.50,235.00 L 482.50,234.00 L 482.50,233.00 L 482.50,232.00 L 482.50,231.00 L 482.50,230.00 L 482.50,229.00 L 482.50,228.00 L 482.50,227.00 L 482.00,226.50 L 481.50,226.00 L 481.50,225.00 L 481.00,224.50 L 480.50,224.00 L 480.00,223.50 L 479.00,223.50 L 478.00,223.50 L 477.00,223.50 L 476.00,223.50 L 475.00,223.50 L 474.00,223.50 L 473.00,223.50 L 472.00,223.50 L 471.00,223.50 L 470.00,223.50 L 469.00,223.50 L 468.00,223.50 L 467.00,223.50 L 466.00,223.50 L 465.00,223.50 L 464.00,223.50 L 463.00,223.50 L 462.00,223.50 L 461.00,223.50 L 460.00,223.50 L 459.00,223.50 L 458.00,223.50 L 457.00,223.50 L 456.00,223.50 L 455.00,223.50 L 454.00,223.50 L 453.00,223.50 L 452.00,223.50 L 451.00,223.50 L 450.00,223.50 L 449.00,223.50 L 448.00,223.50 L 447.00,223.50 L 446.00,223.50 L 445.00,223.50 L 444.00,223.50 L 443.00,223.50 L 442.00,223.50 L 441.00,223.50 L 440.00,223.50 L 439.00,223.50 L 438.50,224.00 L 438.50,225.00 L 438.50,226.00 L 438.50,227.00 L 438.50,228.00 L 438.50,229.00 L 438.50,230.00 L 438.50,231.00 L 438.50,232.00 L 438.50,233.00 L 438.50,234.00 L 438.50,235.00 L 438.50,236.00 L 438.50,237.00 L 438.50,238.00 L 438.50,239.00 L 438.50,240.00 L 438.50,241.00 L 438.50,242.00 L 438.50,243.00 L 438.50,244.00 L 438.50,245.00 L 438.50,246.00 L 438.50,247.00 L 438.50,248.00 L 438.50,249.00 L 438.50,250.00 L 438.50,251.00 L 438.50,252.00 L 438.00,252.50 L 437.50,253.00 L 437.50,254.00 L 437.00,254.50 L 436.50,255.00 L 436.00,255.50 L 435.50,256.00 L 435.00,256.50 Z" fill="#FFFFFF" fill-rule="evenodd"/>
  <path d="M 626.00,255.50 L 625.00,255.50 L 624.00,255.50 L 623.00,255.50 L 622.00,255.50 L 621.00,255.50 L 620.00,255.50 L 619.00,255.50 L 618.50,255.00 L 618.00,254.50 L 617.50,254.00 L 617.50,253.00 L 617.50,252.00 L 617.50,251.00 L 617.50,250.00 L 617.50,249.00 L 617.50,248.00 L 617.50,247.00 L 617.50,246.00 L 617.50,245.00 L 617.50,244.00 L 617.00,243.50 L 616.50,243.00 L 616.50,242.00 L 616.50,241.00 L 616.50,240.00 L 617.00,239.50 L 617.50,239.00 L 617.50,238.00 L 617.50,237.00 L 617.50,236.00 L 617.50,235.00 L 617.50,234.00 L 617.50,233.00 L 617.50,232.00 L 617.50,231.00 L 617.50,230.00 L 617.50,229.00 L 617.50,228.00 L 617.50,227.00 L 617.50,226.00 L 617.50,225.00 L 617.50,224.00 L 617.50,223.00 L 617.50,222.00 L 617.50,221.00 L 617.50,220.00 L 617.50,219.00 L 617.50,218.00 L 617.50,217.00 L 617.50,216.00 L 617.00,215.50 L 616.50,215.00 L 616.50,214.00 L 616.50,213.00 L 616.50,212.00 L 616.50,211.00 L 616.50,210.00 L 616.50,209.00 L 616.50,208.00 L 616.50,207.00 L 616.50,206.00 L 616.50,205.00 L 616.50,204.00 L 616.50,203.00 L 616.50,202.00 L 616.50,201.00 L 616.50,200.00 L 616.50,199.00 L 616.50,198.00 L 616.50,197.00 L 616.50,196.00 L 616.50,195.00 L 616.50,194.00 L 616.50,193.00 L 616.50,192.00 L 616.50,191.00 L 616.50,190.00 L 616.50,189.00 L 616.50,188.00 L 616.50,187.00 L 616.50,186.00 L 616.50,185.00 L 616.50,184.00 L 616.50,183.00 L 616.50,182.00 L 616.50,181.00 L 617.00,180.50 L 617.50,180.00 L 617.50,179.00 L 618.00,178.50 L 619.00,178.50 L 620.00,178.50 L 621.00,178.50 L 622.00,178.50 L 623.00,178.50 L 624.00,178.50 L 625.00,178.50 L 626.00,178.50 L 626.50,179.00 L 626.50,180.00 L 626.50,181.00 L 626.50,182.00 L 626.50,183.00 L 626.50,184.00 L 626.50,185.00 L 626.50,186.00 L 626.50,187.00 L 626.50,188.00 L 626.50,189.00 L 626.50,190.00 L 626.50,191.00 L 626.50,192.00 L 626.50,193.00 L 626.50,194.00 L 626.50,195.00 L 626.50,196.00 L 626.50,197.00 L 626.50,198.00 L 626.50,199.00 L 626.50,200.00 L 626.50,201.00 L 626.50,202.00 L 626.50,203.00 L 626.50,204.00 L 626.50,205.00 L 626.50,206.00 L 626.50,207.00 L 626.50,208.00 L 626.50,209.00 L 626.50,210.00 L 626.50,211.00 L 626.50,212.00 L 626.50,213.00 L 626.50,214.00 L 626.50,215.00 L 626.50,216.00 L 626.50,217.00 L 626.50,218.00 L 626.50,219.00 L 626.50,220.00 L 626.50,221.00 L 626.50,222.00 L 626.50,223.00 L 626.50,224.00 L 626.50,225.00 L 626.50,226.00 L 626.50,227.00 L 626.50,228.00 L 626.50,229.00 L 626.50,230.00 L 626.50,231.00 L 626.50,232.00 L 626.50,233.00 L 626.50,234.00 L 626.50,235.00 L 626.50,236.00 L 626.50,237.00 L 626.50,238.00 L 626.50,239.00 L 626.50,240.00 L 626.50,241.00 L 626.50,242.00 L 626.50,243.00 L 626.50,244.00 L 626.50,245.00 L 626.50,246.00 L 626.50,247.00 L 626.50,248.00 L 626.50,249.00 L 626.50,250.00 L 626.50,251.00 L 626.50,252.00 L 626.50,253.00 L 626.50,254.00 L 626.50,255.00 L 626.00,255.50 Z" fill="#FFFFFF" fill-rule="evenodd"/>
  <path d="M 726.00,255.50 L 725.00,255.50 L 724.00,255.50 L 723.00,255.50 L 722.00,255.50 L 721.00,255.50 L 720.00,255.50 L 719.00,255.50 L 718.50,255.00 L 718.00,254.50 L 717.50,254.00 L 717.50,253.00 L 717.50,252.00 L 717.50,251.00 L 717.50,250.00 L 717.50,249.00 L 717.50,248.00 L 717.00,247.50 L 716.50,247.00 L 716.50,246.00 L 716.50,245.00 L 716.50,244.00 L 716.50,243.00 L 716.50,242.00 L 716.50,241.00 L 716.50,240.00 L 716.50,239.00 L 716.50,238.00 L 716.50,237.00 L 716.50,236.00 L 716.50,235.00 L 716.50,234.00 L 716.50,233.00 L 716.50,232.00 L 716.50,231.00 L 716.50,230.00 L 716.50,229.00 L 716.50,228.00 L 716.50,227.00 L 716.50,226.00 L 716.50,225.00 L 716.50,224.00 L 716.50,223.00 L 716.50,222.00 L 716.00,221.50 L 715.50,221.00 L 715.00,220.50 L 714.50,220.00 L 714.00,219.50 L 713.50,219.00 L 713.00,218.50 L 712.50,218.00 L 712.00,217.50 L 711.00,217.50 L 710.50,217.00 L 710.00,216.50 L 709.00,216.50 L 708.00,216.50 L 707.00,216.50 L 706.00,216.50 L 705.00,216.50 L 704.00,216.50 L 703.00,216.50 L 702.00,216.50 L 701.00,216.50 L 700.00,216.50 L 699.50,217.00 L 699.00,217.50 L 698.00,217.50 L 697.50,218.00 L 697.00,218.50 L 696.00,218.50 L 695.50,219.00 L 695.00,219.50 L 694.50,220.00 L 694.00,220.50 L 693.50,221.00 L 693.00,221.50 L 692.50,222.00 L 692.00,222.50 L 691.50,223.00 L 691.50,224.00 L 691.50,225.00 L 691.50,226.00 L 691.50,227.00 L 691.50,228.00 L 691.00,228.50 L 690.50,229.00 L 690.50,230.00 L 690.50,231.00 L 690.50,232.00 L 690.50,233.00 L 690.50,234.00 L 690.50,235.00 L 690.50,236.00 L 690.50,237.00 L 690.50,238.00 L 690.50,239.00 L 690.50,240.00 L 690.50,241.00 L 690.50,242.00 L 690.50,243.00 L 690.50,244.00 L 690.50,245.00 L 690.50,246.00 L 690.50,247.00 L 690.50,248.00 L 690.50,249.00 L 690.50,250.00 L 691.00,250.50 L 691.50,251.00 L 691.00,251.50 L 690.50,252.00 L 690.50,253.00 L 690.50,254.00 L 690.00,254.50 L 689.50,255.00 L 689.00,255.50 L 688.00,255.50 L 687.00,255.50 L 686.00,255.50 L 685.00,255.50 L 684.00,255.50 L 683.00,255.50 L 682.00,255.50 L 681.50,255.00 L 681.50,254.00 L 681.00,253.50 L 680.50,253.00 L 680.50,252.00 L 680.50,251.00 L 680.50,250.00 L 680.50,249.00 L 680.50,248.00 L 680.50,247.00 L 680.50,246.00 L 680.50,245.00 L 680.50,244.00 L 680.50,243.00 L 680.50,242.00 L 680.50,241.00 L 680.50,240.00 L 680.50,239.00 L 680.50,238.00 L 680.50,237.00 L 680.50,236.00 L 680.50,235.00 L 680.50,234.00 L 680.50,233.00 L 680.50,232.00 L 680.50,231.00 L 680.50,230.00 L 680.50,229.00 L 680.50,228.00 L 680.50,227.00 L 680.50,226.00 L 680.50,225.00 L 680.50,224.00 L 680.50,223.00 L 680.50,222.00 L 680.50,221.00 L 680.50,220.00 L 680.50,219.00 L 680.50,218.00 L 680.50,217.00 L 680.50,216.00 L 680.50,215.00 L 680.50,214.00 L 680.50,213.00 L 680.50,212.00 L 680.50,211.00 L 680.50,210.00 L 680.50,209.00 L 680.50,208.00 L 680.50,207.00 L 680.50,206.00 L 680.50,205.00 L 680.50,204.00 L 680.50,203.00 L 680.50,202.00 L 680.50,201.00 L 680.50,200.00 L 680.50,199.00 L 680.50,198.00 L 680.50,197.00 L 680.50,196.00 L 680.50,195.00 L 680.50,194.00 L 680.50,193.00 L 680.50,192.00 L 680.50,191.00 L 680.50,190.00 L 680.50,189.00 L 680.50,188.00 L 680.50,187.00 L 680.50,186.00 L 680.50,185.00 L 680.50,184.00 L 680.50,183.00 L 680.50,182.00 L 680.50,181.00 L 680.50,180.00 L 680.50,179.00 L 681.00,178.50 L 682.00,178.50 L 683.00,178.50 L 684.00,178.50 L 685.00,178.50 L 686.00,178.50 L 687.00,178.50 L 688.00,178.50 L 689.00,178.50 L 689.50,179.00 L 690.00,179.50 L 690.50,180.00 L 690.50,181.00 L 690.50,182.00 L 690.50,183.00 L 690.50,184.00 L 690.50,185.00 L 690.50,186.00 L 690.50,187.00 L 690.50,188.00 L 690.50,189.00 L 690.50,190.00 L 690.50,191.00 L 690.50,192.00 L 690.50,193.00 L 690.50,194.00 L 690.50,195.00 L 690.50,196.00 L 690.50,197.00 L 690.50,198.00 L 690.50,199.00 L 690.50,200.00 L 690.50,201.00 L 690.50,202.00 L 690.50,203.00 L 690.50,204.00 L 690.50,205.00 L 690.50,206.00 L 690.50,207.00 L 691.00,207.50 L 691.50,208.00 L 691.50,209.00 L 691.50,210.00 L 692.00,210.50 L 693.00,210.50 L 694.00,210.50 L 695.00,210.50 L 695.50,210.00 L 696.00,209.50 L 697.00,209.50 L 697.50,209.00 L 698.00,208.50 L 699.00,208.50 L 700.00,208.50 L 701.00,208.50 L 701.50,208.00 L 702.00,207.50 L 703.00,207.50 L 704.00,207.50 L 705.00,207.50 L 706.00,207.50 L 707.00,207.50 L 708.00,207.50 L 709.00,207.50 L 710.00,207.50 L 711.00,207.50 L 712.00,207.50 L 713.00,207.50 L 713.50,208.00 L 714.00,208.50 L 715.00,208.50 L 716.00,208.50 L 716.50,209.00 L 717.00,209.50 L 718.00,209.50 L 718.50,210.00 L 719.00,210.50 L 719.50,211.00 L 720.00,211.50 L 721.00,211.50 L 721.50,212.00 L 722.00,212.50 L 722.50,213.00 L 723.00,213.50 L 723.50,214.00 L 723.50,215.00 L 724.00,215.50 L 724.50,216.00 L 724.50,217.00 L 725.00,217.50 L 725.50,218.00 L 725.50,219.00 L 726.00,219.50 L 726.50,220.00 L 726.50,221.00 L 726.50,222.00 L 726.50,223.00 L 726.50,224.00 L 726.50,225.00 L 727.00,225.50 L 727.50,226.00 L 727.50,227.00 L 727.00,227.50 L 726.50,228.00 L 726.50,229.00 L 726.50,230.00 L 726.50,231.00 L 726.50,232.00 L 726.50,233.00 L 726.50,234.00 L 726.50,235.00 L 726.50,236.00 L 726.50,237.00 L 726.50,238.00 L 726.50,239.00 L 726.50,240.00 L 726.50,241.00 L 726.50,242.00 L 726.50,243.00 L 726.50,244.00 L 726.50,245.00 L 726.50,246.00 L 727.00,246.50 L 727.50,247.00 L 727.50,248.00 L 727.50,249.00 L 727.50,250.00 L 727.50,251.00 L 727.50,252.00 L 727.50,253.00 L 727.50,254.00 L 727.00,254.50 L 726.50,255.00 L 726.00,255.50 Z" fill="#FFFFFF" fill-rule="evenodd"/>
  <path d="M 663.00,256.50 L 662.00,256.50 L 661.00,256.50 L 660.00,256.50 L 659.00,256.50 L 658.00,256.50 L 657.00,256.50 L 656.00,256.50 L 655.50,256.00 L 655.00,255.50 L 654.00,255.50 L 653.00,255.50 L 652.50,255.00 L 652.00,254.50 L 651.50,254.00 L 651.00,253.50 L 650.50,253.00 L 650.00,252.50 L 649.50,252.00 L 649.00,251.50 L 648.50,251.00 L 648.00,250.50 L 647.50,250.00 L 647.50,249.00 L 647.50,248.00 L 647.00,247.50 L 646.50,247.00 L 646.50,246.00 L 646.50,245.00 L 646.50,244.00 L 646.50,243.00 L 646.50,242.00 L 646.00,241.50 L 645.50,241.00 L 645.50,240.00 L 645.50,239.00 L 645.50,238.00 L 645.50,237.00 L 645.50,236.00 L 645.50,235.00 L 645.50,234.00 L 645.50,233.00 L 645.50,232.00 L 645.50,231.00 L 645.50,230.00 L 645.50,229.00 L 645.50,228.00 L 645.50,227.00 L 645.50,226.00 L 645.50,225.00 L 645.50,224.00 L 645.50,223.00 L 645.50,222.00 L 645.50,221.00 L 645.50,220.00 L 645.50,219.00 L 645.00,218.50 L 644.50,218.00 L 644.00,217.50 L 643.00,217.50 L 642.00,217.50 L 641.00,217.50 L 640.50,217.00 L 640.00,216.50 L 639.00,216.50 L 638.50,216.00 L 638.50,215.00 L 638.50,214.00 L 639.00,213.50 L 639.50,213.00 L 640.00,212.50 L 640.50,212.00 L 641.00,211.50 L 641.50,211.00 L 642.00,210.50 L 642.50,210.00 L 643.00,209.50 L 643.50,209.00 L 644.00,208.50 L 644.50,208.00 L 645.00,207.50 L 645.50,207.00 L 646.00,206.50 L 646.50,206.00 L 646.50,205.00 L 647.00,204.50 L 647.50,204.00 L 648.00,203.50 L 648.50,203.00 L 648.50,202.00 L 649.00,201.50 L 649.50,201.00 L 650.00,200.50 L 650.50,200.00 L 650.50,199.00 L 651.00,198.50 L 651.50,198.00 L 651.50,197.00 L 652.00,196.50 L 652.50,196.00 L 652.50,195.00 L 653.00,194.50 L 653.50,194.00 L 654.00,193.50 L 655.00,193.50 L 655.50,194.00 L 656.00,194.50 L 656.50,195.00 L 656.50,196.00 L 656.50,197.00 L 656.50,198.00 L 656.50,199.00 L 656.50,200.00 L 656.50,201.00 L 656.50,202.00 L 656.50,203.00 L 656.50,204.00 L 656.50,205.00 L 656.50,206.00 L 657.00,206.50 L 657.50,207.00 L 658.00,207.50 L 659.00,207.50 L 660.00,207.50 L 661.00,207.50 L 662.00,207.50 L 663.00,207.50 L 664.00,207.50 L 665.00,207.50 L 665.50,208.00 L 666.00,208.50 L 667.00,208.50 L 667.50,209.00 L 667.50,210.00 L 668.00,210.50 L 668.50,211.00 L 668.50,212.00 L 668.50,213.00 L 668.50,214.00 L 668.00,214.50 L 667.50,215.00 L 667.50,216.00 L 667.00,216.50 L 666.50,217.00 L 666.00,217.50 L 665.00,217.50 L 664.00,217.50 L 663.00,217.50 L 662.00,217.50 L 661.00,217.50 L 660.00,217.50 L 659.00,217.50 L 658.00,217.50 L 657.50,218.00 L 657.00,218.50 L 656.50,219.00 L 656.50,220.00 L 656.50,221.00 L 656.00,221.50 L 655.50,222.00 L 655.50,223.00 L 655.50,224.00 L 655.50,225.00 L 656.00,225.50 L 656.50,226.00 L 656.50,227.00 L 656.50,228.00 L 656.50,229.00 L 656.50,230.00 L 656.50,231.00 L 656.50,232.00 L 656.50,233.00 L 656.50,234.00 L 656.50,235.00 L 656.50,236.00 L 656.50,237.00 L 656.50,238.00 L 656.50,239.00 L 656.50,240.00 L 656.50,241.00 L 656.50,242.00 L 656.50,243.00 L 656.50,244.00 L 657.00,244.50 L 657.50,245.00 L 658.00,245.50 L 658.50,246.00 L 659.00,246.50 L 660.00,246.50 L 661.00,246.50 L 662.00,246.50 L 663.00,246.50 L 664.00,246.50 L 665.00,246.50 L 666.00,246.50 L 667.00,246.50 L 667.50,247.00 L 668.00,247.50 L 668.50,248.00 L 668.50,249.00 L 668.50,250.00 L 669.00,250.50 L 669.50,251.00 L 669.50,252.00 L 669.50,253.00 L 669.00,253.50 L 668.50,254.00 L 668.00,254.50 L 667.50,255.00 L 667.00,255.50 L 666.00,255.50 L 665.00,255.50 L 664.00,255.50 L 663.50,256.00 L 663.00,256.50 Z" fill="#FFFFFF" fill-rule="evenodd"/>
  <path d="M 348.00,256.50 L 347.00,256.50 L 346.00,256.50 L 345.00,256.50 L 344.00,256.50 L 343.00,256.50 L 342.00,256.50 L 341.50,256.00 L 341.00,255.50 L 340.00,255.50 L 339.00,255.50 L 338.00,255.50 L 337.00,255.50 L 336.50,255.00 L 336.00,254.50 L 335.00,254.50 L 334.50,254.00 L 334.00,253.50 L 333.00,253.50 L 332.50,253.00 L 332.00,252.50 L 331.50,252.00 L 331.00,251.50 L 330.50,251.00 L 330.00,250.50 L 329.50,250.00 L 329.00,249.50 L 328.50,249.00 L 328.00,248.50 L 327.50,248.00 L 327.50,247.00 L 327.00,246.50 L 326.50,246.00 L 326.50,245.00 L 326.00,244.50 L 325.50,244.00 L 325.50,243.00 L 325.50,242.00 L 325.50,241.00 L 325.00,240.50 L 324.50,240.00 L 324.50,239.00 L 324.50,238.00 L 324.50,237.00 L 324.50,236.00 L 324.50,235.00 L 324.50,234.00 L 324.50,233.00 L 324.50,232.00 L 325.00,231.50 L 325.50,231.00 L 325.50,230.00 L 325.50,229.00 L 325.50,228.00 L 325.50,227.00 L 325.50,226.00 L 325.00,225.50 L 324.50,225.00 L 324.50,224.00 L 324.50,223.00 L 324.50,222.00 L 324.50,221.00 L 324.50,220.00 L 324.50,219.00 L 324.50,218.00 L 324.50,217.00 L 324.50,216.00 L 324.50,215.00 L 324.50,214.00 L 324.50,213.00 L 324.50,212.00 L 324.50,211.00 L 324.50,210.00 L 324.50,209.00 L 325.00,208.50 L 325.50,208.00 L 326.00,207.50 L 327.00,207.50 L 328.00,207.50 L 329.00,207.50 L 330.00,207.50 L 331.00,207.50 L 332.00,207.50 L 332.50,208.00 L 333.00,208.50 L 333.50,209.00 L 334.00,209.50 L 334.50,210.00 L 334.50,211.00 L 334.50,212.00 L 334.50,213.00 L 334.50,214.00 L 334.50,215.00 L 334.50,216.00 L 334.50,217.00 L 334.50,218.00 L 334.50,219.00 L 334.50,220.00 L 334.50,221.00 L 334.50,222.00 L 334.50,223.00 L 334.50,224.00 L 334.50,225.00 L 334.50,226.00 L 334.50,227.00 L 334.50,228.00 L 334.50,229.00 L 334.50,230.00 L 334.50,231.00 L 334.50,232.00 L 334.50,233.00 L 334.50,234.00 L 334.50,235.00 L 334.50,236.00 L 334.50,237.00 L 335.00,237.50 L 335.50,238.00 L 335.50,239.00 L 335.50,240.00 L 335.50,241.00 L 336.00,241.50 L 336.50,242.00 L 336.50,243.00 L 337.00,243.50 L 337.50,244.00 L 338.00,244.50 L 338.50,245.00 L 339.00,245.50 L 340.00,245.50 L 340.50,246.00 L 341.00,246.50 L 342.00,246.50 L 342.50,247.00 L 343.00,247.50 L 344.00,247.50 L 345.00,247.50 L 346.00,247.50 L 347.00,247.50 L 348.00,247.50 L 349.00,247.50 L 350.00,247.50 L 350.50,247.00 L 351.00,246.50 L 352.00,246.50 L 353.00,246.50 L 353.50,246.00 L 354.00,245.50 L 354.50,245.00 L 355.00,244.50 L 356.00,244.50 L 356.50,244.00 L 357.00,243.50 L 357.50,243.00 L 358.00,242.50 L 358.50,242.00 L 358.50,241.00 L 359.00,240.50 L 359.50,240.00 L 359.50,239.00 L 360.00,238.50 L 360.50,238.00 L 360.50,237.00 L 360.50,236.00 L 360.50,235.00 L 360.50,234.00 L 360.50,233.00 L 360.50,232.00 L 361.00,231.50 L 361.50,231.00 L 361.50,230.00 L 361.50,229.00 L 361.50,228.00 L 361.50,227.00 L 361.50,226.00 L 361.50,225.00 L 361.50,224.00 L 361.50,223.00 L 361.50,222.00 L 361.50,221.00 L 361.50,220.00 L 361.50,219.00 L 361.50,218.00 L 361.50,217.00 L 361.50,216.00 L 361.50,215.00 L 361.00,214.50 L 360.50,214.00 L 360.50,213.00 L 360.50,212.00 L 360.50,211.00 L 361.00,210.50 L 361.50,210.00 L 361.50,209.00 L 362.00,208.50 L 362.50,208.00 L 363.00,207.50 L 364.00,207.50 L 365.00,207.50 L 366.00,207.50 L 367.00,207.50 L 368.00,207.50 L 368.50,208.00 L 369.00,208.50 L 370.00,208.50 L 370.50,209.00 L 370.50,210.00 L 371.00,210.50 L 371.50,211.00 L 371.00,211.50 L 370.50,212.00 L 370.50,213.00 L 370.50,214.00 L 370.50,215.00 L 370.50,216.00 L 370.50,217.00 L 370.50,218.00 L 370.50,219.00 L 370.50,220.00 L 370.50,221.00 L 370.50,222.00 L 370.50,223.00 L 370.50,224.00 L 370.50,225.00 L 370.50,226.00 L 370.50,227.00 L 370.50,228.00 L 370.50,229.00 L 370.50,230.00 L 370.50,231.00 L 370.50,232.00 L 370.50,233.00 L 370.50,234.00 L 370.50,235.00 L 370.50,236.00 L 370.50,237.00 L 370.50,238.00 L 370.50,239.00 L 370.50,240.00 L 370.50,241.00 L 370.50,242.00 L 370.50,243.00 L 370.50,244.00 L 370.50,245.00 L 370.50,246.00 L 370.50,247.00 L 370.50,248.00 L 370.50,249.00 L 370.50,250.00 L 370.50,251.00 L 370.50,252.00 L 370.50,253.00 L 370.50,254.00 L 370.00,254.50 L 369.50,255.00 L 369.00,255.50 L 368.00,255.50 L 367.00,255.50 L 366.00,255.50 L 365.00,255.50 L 364.00,255.50 L 363.00,255.50 L 362.50,255.00 L 362.00,254.50 L 361.50,254.00 L 361.50,253.00 L 361.00,252.50 L 360.00,252.50 L 359.00,252.50 L 358.00,252.50 L 357.50,253.00 L 357.00,253.50 L 356.00,253.50 L 355.50,254.00 L 355.00,254.50 L 354.00,254.50 L 353.00,254.50 L 352.50,255.00 L 352.00,255.50 L 351.00,255.50 L 350.00,255.50 L 349.00,255.50 L 348.50,256.00 L 348.00,256.50 Z" fill="#FFFFFF" fill-rule="evenodd"/>
  <path d="M 392.00,255.50 L 391.00,255.50 L 390.00,255.50 L 389.00,255.50 L 388.00,255.50 L 387.00,255.50 L 386.00,255.50 L 385.00,255.50 L 384.00,255.50 L 383.50,255.00 L 383.50,254.00 L 383.00,253.50 L 382.50,253.00 L 382.50,252.00 L 382.50,251.00 L 382.50,250.00 L 382.50,249.00 L 382.50,248.00 L 382.50,247.00 L 382.50,246.00 L 382.50,245.00 L 382.50,244.00 L 382.50,243.00 L 382.50,242.00 L 382.50,241.00 L 382.50,240.00 L 382.50,239.00 L 382.50,238.00 L 382.50,237.00 L 382.50,236.00 L 382.50,235.00 L 382.50,234.00 L 382.50,233.00 L 382.50,232.00 L 382.50,231.00 L 382.50,230.00 L 382.50,229.00 L 382.50,228.00 L 382.50,227.00 L 382.50,226.00 L 382.50,225.00 L 382.50,224.00 L 382.50,223.00 L 382.50,222.00 L 382.50,221.00 L 382.50,220.00 L 382.50,219.00 L 382.50,218.00 L 382.50,217.00 L 382.50,216.00 L 382.50,215.00 L 383.00,214.50 L 383.50,214.00 L 383.50,213.00 L 383.50,212.00 L 383.50,211.00 L 383.50,210.00 L 383.50,209.00 L 384.00,208.50 L 385.00,208.50 L 386.00,208.50 L 387.00,208.50 L 388.00,208.50 L 388.50,209.00 L 389.00,209.50 L 390.00,209.50 L 391.00,209.50 L 392.00,209.50 L 392.50,210.00 L 393.00,210.50 L 394.00,210.50 L 395.00,210.50 L 396.00,210.50 L 396.50,210.00 L 397.00,209.50 L 398.00,209.50 L 399.00,209.50 L 399.50,209.00 L 400.00,208.50 L 401.00,208.50 L 401.50,208.00 L 402.00,207.50 L 403.00,207.50 L 404.00,207.50 L 405.00,207.50 L 406.00,207.50 L 407.00,207.50 L 408.00,207.50 L 409.00,207.50 L 410.00,207.50 L 411.00,207.50 L 411.50,208.00 L 412.00,208.50 L 413.00,208.50 L 414.00,208.50 L 414.50,209.00 L 415.00,209.50 L 416.00,209.50 L 416.50,210.00 L 417.00,210.50 L 417.50,211.00 L 417.00,211.50 L 416.50,212.00 L 416.50,213.00 L 416.00,213.50 L 415.50,214.00 L 415.50,215.00 L 415.00,215.50 L 414.50,216.00 L 414.50,217.00 L 414.00,217.50 L 413.00,217.50 L 412.50,218.00 L 412.00,218.50 L 411.50,218.00 L 411.00,217.50 L 410.00,217.50 L 409.00,217.50 L 408.00,217.50 L 407.00,217.50 L 406.50,217.00 L 406.00,216.50 L 405.00,216.50 L 404.00,216.50 L 403.00,216.50 L 402.00,216.50 L 401.50,217.00 L 401.00,217.50 L 400.00,217.50 L 399.00,217.50 L 398.50,218.00 L 398.00,218.50 L 397.50,219.00 L 397.00,219.50 L 396.00,219.50 L 395.50,220.00 L 395.50,221.00 L 395.00,221.50 L 394.50,222.00 L 394.50,223.00 L 394.00,223.50 L 393.50,224.00 L 393.50,225.00 L 393.50,226.00 L 393.00,226.50 L 392.50,227.00 L 392.50,228.00 L 392.50,229.00 L 392.50,230.00 L 392.50,231.00 L 392.50,232.00 L 392.50,233.00 L 392.50,234.00 L 392.50,235.00 L 392.50,236.00 L 392.50,237.00 L 392.50,238.00 L 392.50,239.00 L 392.50,240.00 L 392.50,241.00 L 392.50,242.00 L 392.50,243.00 L 392.50,244.00 L 392.50,245.00 L 392.50,246.00 L 392.50,247.00 L 392.50,248.00 L 392.50,249.00 L 392.50,250.00 L 392.50,251.00 L 392.50,252.00 L 392.50,253.00 L 392.50,254.00 L 392.50,255.00 L 392.00,255.50 Z" fill="#FFFFFF" fill-rule="evenodd"/>
  <path d="M 532.00,256.50 L 531.00,256.50 L 530.00,256.50 L 529.00,256.50 L 528.00,256.50 L 527.00,256.50 L 526.00,256.50 L 525.50,256.00 L 525.00,255.50 L 524.00,255.50 L 523.00,255.50 L 522.00,255.50 L 521.00,255.50 L 520.50,255.00 L 520.00,254.50 L 519.00,254.50 L 518.50,254.00 L 518.00,253.50 L 517.00,253.50 L 516.00,253.50 L 515.50,253.00 L 515.00,252.50 L 514.50,252.00 L 514.00,251.50 L 513.00,251.50 L 512.50,251.00 L 512.00,250.50 L 511.50,250.00 L 511.00,249.50 L 510.50,249.00 L 510.00,248.50 L 509.50,248.00 L 509.50,247.00 L 509.00,246.50 L 508.50,246.00 L 508.00,245.50 L 507.50,245.00 L 507.50,244.00 L 507.00,243.50 L 506.50,243.00 L 506.50,242.00 L 506.00,241.50 L 505.50,241.00 L 505.50,240.00 L 505.50,239.00 L 505.00,238.50 L 504.50,238.00 L 504.50,237.00 L 504.50,236.00 L 504.50,235.00 L 504.50,234.00 L 504.50,233.00 L 504.50,232.00 L 504.50,231.00 L 504.50,230.00 L 504.50,229.00 L 504.50,228.00 L 504.50,227.00 L 504.50,226.00 L 505.00,225.50 L 505.50,225.00 L 505.50,224.00 L 505.50,223.00 L 505.50,222.00 L 506.00,221.50 L 506.50,221.00 L 506.50,220.00 L 507.00,219.50 L 507.50,219.00 L 507.50,218.00 L 508.00,217.50 L 508.50,217.00 L 509.00,216.50 L 509.50,216.00 L 510.00,215.50 L 510.50,215.00 L 511.00,214.50 L 511.50,214.00 L 512.00,213.50 L 512.50,213.00 L 513.00,212.50 L 513.50,212.00 L 514.00,211.50 L 514.50,211.00 L 515.00,210.50 L 516.00,210.50 L 516.50,210.00 L 517.00,209.50 L 518.00,209.50 L 518.50,209.00 L 519.00,208.50 L 520.00,208.50 L 521.00,208.50 L 522.00,208.50 L 522.50,208.00 L 523.00,207.50 L 524.00,207.50 L 525.00,207.50 L 526.00,207.50 L 527.00,207.50 L 528.00,207.50 L 529.00,207.50 L 530.00,207.50 L 531.00,207.50 L 532.00,207.50 L 533.00,207.50 L 534.00,207.50 L 534.50,208.00 L 535.00,208.50 L 536.00,208.50 L 537.00,208.50 L 537.50,209.00 L 538.00,209.50 L 539.00,209.50 L 540.00,209.50 L 540.50,210.00 L 541.00,210.50 L 541.50,211.00 L 542.00,211.50 L 543.00,211.50 L 543.50,212.00 L 544.00,212.50 L 544.50,213.00 L 545.00,213.50 L 545.50,214.00 L 546.00,214.50 L 546.50,215.00 L 547.00,215.50 L 547.50,216.00 L 547.50,217.00 L 548.00,217.50 L 548.50,218.00 L 548.50,219.00 L 549.00,219.50 L 549.50,220.00 L 549.50,221.00 L 550.00,221.50 L 550.50,222.00 L 550.50,223.00 L 550.50,224.00 L 550.50,225.00 L 550.50,226.00 L 551.00,226.50 L 551.50,227.00 L 551.50,228.00 L 551.50,229.00 L 551.50,230.00 L 551.50,231.00 L 551.50,232.00 L 551.00,232.50 L 550.50,233.00 L 550.50,234.00 L 550.00,234.50 L 549.00,234.50 L 548.50,235.00 L 548.00,235.50 L 547.00,235.50 L 546.00,235.50 L 545.00,235.50 L 544.00,235.50 L 543.00,235.50 L 542.00,235.50 L 541.00,235.50 L 540.00,235.50 L 539.00,235.50 L 538.00,235.50 L 537.00,235.50 L 536.00,235.50 L 535.00,235.50 L 534.00,235.50 L 533.00,235.50 L 532.00,235.50 L 531.00,235.50 L 530.00,235.50 L 529.00,235.50 L 528.00,235.50 L 527.00,235.50 L 526.00,235.50 L 525.00,235.50 L 524.00,235.50 L 523.00,235.50 L 522.00,235.50 L 521.00,235.50 L 520.00,235.50 L 519.00,235.50 L 518.00,235.50 L 517.00,235.50 L 516.00,235.50 L 515.50,236.00 L 515.50,237.00 L 515.50,238.00 L 516.00,238.50 L 516.50,239.00 L 516.50,240.00 L 517.00,240.50 L 517.50,241.00 L 517.50,242.00 L 518.00,242.50 L 518.50,243.00 L 519.00,243.50 L 519.50,244.00 L 520.00,244.50 L 520.50,245.00 L 521.00,245.50 L 522.00,245.50 L 522.50,246.00 L 523.00,246.50 L 524.00,246.50 L 525.00,246.50 L 525.50,247.00 L 526.00,247.50 L 527.00,247.50 L 528.00,247.50 L 529.00,247.50 L 530.00,247.50 L 531.00,247.50 L 531.50,247.00 L 532.00,246.50 L 533.00,246.50 L 534.00,246.50 L 535.00,246.50 L 535.50,246.00 L 536.00,245.50 L 537.00,245.50 L 538.00,245.50 L 538.50,245.00 L 539.00,244.50 L 540.00,244.50 L 541.00,244.50 L 542.00,244.50 L 542.50,244.00 L 543.00,243.50 L 544.00,243.50 L 545.00,243.50 L 546.00,243.50 L 547.00,243.50 L 547.50,244.00 L 547.50,245.00 L 548.00,245.50 L 548.50,246.00 L 548.50,247.00 L 548.00,247.50 L 547.50,248.00 L 547.00,248.50 L 546.50,249.00 L 546.00,249.50 L 545.50,250.00 L 545.00,250.50 L 544.50,251.00 L 544.00,251.50 L 543.50,252.00 L 543.00,252.50 L 542.50,253.00 L 542.00,253.50 L 541.00,253.50 L 540.00,253.50 L 539.50,254.00 L 539.00,254.50 L 538.00,254.50 L 537.50,255.00 L 537.00,255.50 L 536.00,255.50 L 535.00,255.50 L 534.00,255.50 L 533.00,255.50 L 532.50,256.00 L 532.00,256.50 Z" fill="#FFFFFF" fill-rule="evenodd"/>
  <path d="M 579.00,256.50 L 578.00,256.50 L 577.00,256.50 L 576.00,256.50 L 575.00,256.50 L 574.00,256.50 L 573.50,256.00 L 573.00,255.50 L 572.00,255.50 L 571.00,255.50 L 570.00,255.50 L 569.00,255.50 L 568.50,255.00 L 568.00,254.50 L 567.00,254.50 L 566.50,254.00 L 566.00,253.50 L 565.00,253.50 L 564.50,253.00 L 564.00,252.50 L 563.50,252.00 L 563.00,251.50 L 562.50,251.00 L 562.50,250.00 L 562.00,249.50 L 561.50,249.00 L 561.50,248.00 L 561.00,247.50 L 560.50,247.00 L 560.50,246.00 L 560.50,245.00 L 560.50,244.00 L 560.50,243.00 L 560.50,242.00 L 560.50,241.00 L 560.50,240.00 L 560.50,239.00 L 561.00,238.50 L 561.50,238.00 L 561.50,237.00 L 562.00,236.50 L 562.50,236.00 L 562.50,235.00 L 563.00,234.50 L 563.50,234.00 L 564.00,233.50 L 565.00,233.50 L 565.50,233.00 L 566.00,232.50 L 566.50,232.00 L 567.00,231.50 L 568.00,231.50 L 568.50,231.00 L 569.00,230.50 L 570.00,230.50 L 571.00,230.50 L 571.50,230.00 L 572.00,229.50 L 573.00,229.50 L 574.00,229.50 L 575.00,229.50 L 575.50,229.00 L 576.00,228.50 L 577.00,228.50 L 578.00,228.50 L 578.50,228.00 L 579.00,227.50 L 580.00,227.50 L 581.00,227.50 L 582.00,227.50 L 582.50,227.00 L 583.00,226.50 L 584.00,226.50 L 585.00,226.50 L 585.50,226.00 L 586.00,225.50 L 587.00,225.50 L 588.00,225.50 L 588.50,225.00 L 589.00,224.50 L 589.50,224.00 L 590.00,223.50 L 591.00,223.50 L 591.50,223.00 L 591.50,222.00 L 591.50,221.00 L 591.00,220.50 L 590.50,220.00 L 590.50,219.00 L 590.00,218.50 L 589.50,218.00 L 589.00,217.50 L 588.50,217.00 L 588.00,216.50 L 587.00,216.50 L 586.00,216.50 L 585.00,216.50 L 584.00,216.50 L 583.00,216.50 L 582.00,216.50 L 581.00,216.50 L 580.00,216.50 L 579.00,216.50 L 578.00,216.50 L 577.00,216.50 L 576.00,216.50 L 575.50,217.00 L 575.00,217.50 L 574.00,217.50 L 573.00,217.50 L 572.50,218.00 L 572.00,218.50 L 571.00,218.50 L 570.00,218.50 L 569.50,219.00 L 569.00,219.50 L 568.00,219.50 L 567.00,219.50 L 566.00,219.50 L 565.50,219.00 L 565.00,218.50 L 564.50,218.00 L 564.50,217.00 L 564.00,216.50 L 563.50,216.00 L 563.50,215.00 L 563.00,214.50 L 562.50,214.00 L 563.00,213.50 L 563.50,213.00 L 563.50,212.00 L 564.00,211.50 L 565.00,211.50 L 565.50,211.00 L 566.00,210.50 L 567.00,210.50 L 568.00,210.50 L 568.50,210.00 L 569.00,209.50 L 570.00,209.50 L 571.00,209.50 L 571.50,209.00 L 572.00,208.50 L 573.00,208.50 L 574.00,208.50 L 575.00,208.50 L 575.50,208.00 L 576.00,207.50 L 577.00,207.50 L 578.00,207.50 L 579.00,207.50 L 580.00,207.50 L 581.00,207.50 L 582.00,207.50 L 583.00,207.50 L 584.00,207.50 L 585.00,207.50 L 586.00,207.50 L 587.00,207.50 L 588.00,207.50 L 589.00,207.50 L 590.00,207.50 L 590.50,208.00 L 591.00,208.50 L 592.00,208.50 L 593.00,208.50 L 593.50,209.00 L 594.00,209.50 L 595.00,209.50 L 595.50,210.00 L 596.00,210.50 L 596.50,211.00 L 597.00,211.50 L 597.50,212.00 L 598.00,212.50 L 598.50,213.00 L 599.00,213.50 L 599.50,214.00 L 599.50,215.00 L 600.00,215.50 L 600.50,216.00 L 600.50,217.00 L 601.00,217.50 L 601.50,218.00 L 601.50,219.00 L 601.50,220.00 L 601.50,221.00 L 601.50,222.00 L 601.50,223.00 L 601.50,224.00 L 601.50,225.00 L 601.50,226.00 L 601.50,227.00 L 601.50,228.00 L 602.00,228.50 L 602.50,229.00 L 602.50,230.00 L 602.50,231.00 L 602.50,232.00 L 602.50,233.00 L 602.50,234.00 L 602.50,235.00 L 602.50,236.00 L 602.50,237.00 L 602.50,238.00 L 602.50,239.00 L 602.50,240.00 L 602.50,241.00 L 602.50,242.00 L 602.50,243.00 L 602.50,244.00 L 602.50,245.00 L 602.50,246.00 L 602.50,247.00 L 602.50,248.00 L 602.50,249.00 L 602.50,250.00 L 602.50,251.00 L 602.50,252.00 L 602.50,253.00 L 602.50,254.00 L 602.50,255.00 L 602.00,255.50 L 601.00,255.50 L 600.00,255.50 L 599.00,255.50 L 598.00,255.50 L 597.00,255.50 L 596.50,255.00 L 596.00,254.50 L 595.00,254.50 L 594.50,254.00 L 594.00,253.50 L 593.50,253.00 L 593.00,252.50 L 592.00,252.50 L 591.00,252.50 L 590.00,252.50 L 589.50,253.00 L 589.00,253.50 L 588.00,253.50 L 587.50,254.00 L 587.00,254.50 L 586.00,254.50 L 585.50,255.00 L 585.00,255.50 L 584.00,255.50 L 583.00,255.50 L 582.00,255.50 L 581.00,255.50 L 580.00,255.50 L 579.50,256.00 L 579.00,256.50 Z" fill="#FFFFFF" fill-rule="evenodd"/>
  <path d="M 765.00,256.50 L 764.00,256.50 L 763.00,256.50 L 762.00,256.50 L 761.00,256.50 L 760.00,256.50 L 759.00,256.50 L 758.50,256.00 L 758.00,255.50 L 757.00,255.50 L 756.00,255.50 L 755.00,255.50 L 754.00,255.50 L 753.50,255.00 L 753.00,254.50 L 752.00,254.50 L 751.50,254.00 L 751.00,253.50 L 750.00,253.50 L 749.50,253.00 L 749.00,252.50 L 748.00,252.50 L 747.50,252.00 L 747.00,251.50 L 746.50,251.00 L 746.00,250.50 L 745.50,250.00 L 745.00,249.50 L 744.50,249.00 L 744.00,248.50 L 743.50,248.00 L 743.00,247.50 L 742.50,247.00 L 742.00,246.50 L 741.50,246.00 L 741.00,245.50 L 740.50,245.00 L 740.50,244.00 L 740.00,243.50 L 739.50,243.00 L 739.50,242.00 L 739.00,241.50 L 738.50,241.00 L 738.50,240.00 L 738.50,239.00 L 738.00,238.50 L 737.50,238.00 L 737.50,237.00 L 737.50,236.00 L 737.50,235.00 L 737.50,234.00 L 737.50,233.00 L 737.50,232.00 L 737.50,231.00 L 737.50,230.00 L 737.50,229.00 L 737.50,228.00 L 737.50,227.00 L 737.50,226.00 L 738.00,225.50 L 738.50,225.00 L 738.50,224.00 L 738.50,223.00 L 739.00,222.50 L 739.50,222.00 L 739.50,221.00 L 740.00,220.50 L 740.50,220.00 L 740.50,219.00 L 741.00,218.50 L 741.50,218.00 L 742.00,217.50 L 742.50,217.00 L 742.50,216.00 L 743.00,215.50 L 743.50,215.00 L 744.00,214.50 L 744.50,214.00 L 745.00,213.50 L 745.50,213.00 L 746.00,212.50 L 747.00,212.50 L 747.50,212.00 L 748.00,211.50 L 748.50,211.00 L 749.00,210.50 L 750.00,210.50 L 750.50,210.00 L 751.00,209.50 L 752.00,209.50 L 752.50,209.00 L 753.00,208.50 L 754.00,208.50 L 755.00,208.50 L 755.50,208.00 L 756.00,207.50 L 757.00,207.50 L 758.00,207.50 L 759.00,207.50 L 760.00,207.50 L 761.00,207.50 L 762.00,207.50 L 763.00,207.50 L 764.00,207.50 L 765.00,207.50 L 766.00,207.50 L 767.00,207.50 L 768.00,207.50 L 768.50,208.00 L 769.00,208.50 L 770.00,208.50 L 771.00,208.50 L 771.50,209.00 L 772.00,209.50 L 773.00,209.50 L 773.50,210.00 L 774.00,210.50 L 775.00,210.50 L 775.50,211.00 L 776.00,211.50 L 776.50,212.00 L 777.00,212.50 L 777.50,213.00 L 778.00,213.50 L 778.50,214.00 L 778.50,215.00 L 778.00,215.50 L 777.50,216.00 L 777.50,217.00 L 777.00,217.50 L 776.50,218.00 L 776.00,218.50 L 775.50,219.00 L 775.00,219.50 L 774.50,220.00 L 774.00,220.50 L 773.50,220.00 L 773.00,219.50 L 772.00,219.50 L 771.50,219.00 L 771.00,218.50 L 770.00,218.50 L 769.50,218.00 L 769.00,217.50 L 768.00,217.50 L 767.00,217.50 L 766.50,217.00 L 766.00,216.50 L 765.00,216.50 L 764.00,216.50 L 763.00,216.50 L 762.00,216.50 L 761.00,216.50 L 760.00,216.50 L 759.00,216.50 L 758.00,216.50 L 757.50,217.00 L 757.00,217.50 L 756.00,217.50 L 755.50,218.00 L 755.00,218.50 L 754.00,218.50 L 753.50,219.00 L 753.00,219.50 L 752.50,220.00 L 752.00,220.50 L 751.50,221.00 L 751.00,221.50 L 750.50,222.00 L 750.00,222.50 L 749.50,223.00 L 749.50,224.00 L 749.00,224.50 L 748.50,225.00 L 748.50,226.00 L 748.00,226.50 L 747.50,227.00 L 747.50,228.00 L 747.50,229.00 L 747.50,230.00 L 747.50,231.00 L 747.50,232.00 L 747.50,233.00 L 747.50,234.00 L 747.50,235.00 L 747.50,236.00 L 747.50,237.00 L 748.00,237.50 L 748.50,238.00 L 748.50,239.00 L 749.00,239.50 L 749.50,240.00 L 749.50,241.00 L 750.00,241.50 L 750.50,242.00 L 751.00,242.50 L 751.50,243.00 L 752.00,243.50 L 752.50,244.00 L 753.00,244.50 L 754.00,244.50 L 754.50,245.00 L 755.00,245.50 L 756.00,245.50 L 756.50,246.00 L 757.00,246.50 L 758.00,246.50 L 758.50,247.00 L 759.00,247.50 L 760.00,247.50 L 761.00,247.50 L 762.00,247.50 L 763.00,247.50 L 764.00,247.50 L 764.50,247.00 L 765.00,246.50 L 766.00,246.50 L 767.00,246.50 L 768.00,246.50 L 768.50,246.00 L 769.00,245.50 L 769.50,245.00 L 770.00,244.50 L 771.00,244.50 L 771.50,244.00 L 772.00,243.50 L 773.00,243.50 L 774.00,243.50 L 775.00,243.50 L 775.50,244.00 L 776.00,244.50 L 776.50,245.00 L 777.00,245.50 L 777.50,246.00 L 778.00,246.50 L 778.50,247.00 L 778.50,248.00 L 778.50,249.00 L 778.00,249.50 L 777.50,250.00 L 777.00,250.50 L 776.50,251.00 L 776.00,251.50 L 775.50,252.00 L 775.00,252.50 L 774.50,253.00 L 774.00,253.50 L 773.00,253.50 L 772.50,254.00 L 772.00,254.50 L 771.00,254.50 L 770.00,254.50 L 769.50,255.00 L 769.00,255.50 L 768.00,255.50 L 767.00,255.50 L 766.00,255.50 L 765.50,256.00 L 765.00,256.50 Z" fill="#FFFFFF" fill-rule="evenodd"/>
  <path d="M 806.00,256.50 L 805.00,256.50 L 804.00,256.50 L 803.00,256.50 L 802.00,256.50 L 801.00,256.50 L 800.50,256.00 L 800.00,255.50 L 799.00,255.50 L 798.00,255.50 L 797.00,255.50 L 796.00,255.50 L 795.50,255.00 L 795.00,254.50 L 794.00,254.50 L 793.50,254.00 L 793.00,253.50 L 792.00,253.50 L 791.50,253.00 L 791.00,252.50 L 790.50,252.00 L 790.00,251.50 L 789.50,251.00 L 789.50,250.00 L 789.00,249.50 L 788.50,249.00 L 788.50,248.00 L 788.00,247.50 L 787.50,247.00 L 787.50,246.00 L 787.50,245.00 L 787.50,244.00 L 787.50,243.00 L 787.50,242.00 L 787.50,241.00 L 787.50,240.00 L 787.50,239.00 L 788.00,238.50 L 788.50,238.00 L 788.50,237.00 L 789.00,236.50 L 789.50,236.00 L 790.00,235.50 L 790.50,235.00 L 791.00,234.50 L 791.50,234.00 L 792.00,233.50 L 792.50,233.00 L 793.00,232.50 L 793.50,232.00 L 794.00,231.50 L 795.00,231.50 L 795.50,231.00 L 796.00,230.50 L 797.00,230.50 L 798.00,230.50 L 798.50,230.00 L 799.00,229.50 L 800.00,229.50 L 801.00,229.50 L 801.50,229.00 L 802.00,228.50 L 803.00,228.50 L 804.00,228.50 L 805.00,228.50 L 805.50,228.00 L 806.00,227.50 L 807.00,227.50 L 808.00,227.50 L 809.00,227.50 L 809.50,227.00 L 810.00,226.50 L 811.00,226.50 L 812.00,226.50 L 812.50,226.00 L 813.00,225.50 L 814.00,225.50 L 815.00,225.50 L 815.50,225.00 L 816.00,224.50 L 816.50,224.00 L 817.00,223.50 L 818.00,223.50 L 818.50,223.00 L 818.50,222.00 L 818.50,221.00 L 818.00,220.50 L 817.50,220.00 L 817.50,219.00 L 817.00,218.50 L 816.50,218.00 L 816.00,217.50 L 815.50,217.00 L 815.00,216.50 L 814.00,216.50 L 813.00,216.50 L 812.00,216.50 L 811.00,216.50 L 810.00,216.50 L 809.00,216.50 L 808.00,216.50 L 807.00,216.50 L 806.00,216.50 L 805.50,217.00 L 805.00,217.50 L 804.00,217.50 L 803.00,217.50 L 802.00,217.50 L 801.00,217.50 L 800.00,217.50 L 799.50,218.00 L 799.00,218.50 L 798.00,218.50 L 797.50,219.00 L 797.00,219.50 L 796.00,219.50 L 795.00,219.50 L 794.00,219.50 L 793.00,219.50 L 792.50,219.00 L 792.00,218.50 L 791.50,218.00 L 791.50,217.00 L 791.00,216.50 L 790.50,216.00 L 790.50,215.00 L 790.50,214.00 L 790.50,213.00 L 791.00,212.50 L 791.50,212.00 L 792.00,211.50 L 792.50,211.00 L 793.00,210.50 L 794.00,210.50 L 795.00,210.50 L 796.00,210.50 L 796.50,210.00 L 797.00,209.50 L 798.00,209.50 L 799.00,209.50 L 800.00,209.50 L 801.00,209.50 L 801.50,209.00 L 802.00,208.50 L 803.00,208.50 L 804.00,208.50 L 805.00,208.50 L 806.00,208.50 L 807.00,208.50 L 807.50,208.00 L 808.00,207.50 L 809.00,207.50 L 810.00,207.50 L 811.00,207.50 L 812.00,207.50 L 813.00,207.50 L 814.00,207.50 L 815.00,207.50 L 816.00,207.50 L 817.00,207.50 L 818.00,207.50 L 818.50,208.00 L 819.00,208.50 L 820.00,208.50 L 820.50,209.00 L 821.00,209.50 L 822.00,209.50 L 822.50,210.00 L 823.00,210.50 L 823.50,211.00 L 824.00,211.50 L 825.00,211.50 L 825.50,212.00 L 825.50,213.00 L 826.00,213.50 L 826.50,214.00 L 827.00,214.50 L 827.50,215.00 L 827.50,216.00 L 827.50,217.00 L 828.00,217.50 L 828.50,218.00 L 828.50,219.00 L 828.50,220.00 L 828.50,221.00 L 828.50,222.00 L 829.00,222.50 L 829.50,223.00 L 829.50,224.00 L 829.50,225.00 L 829.50,226.00 L 829.50,227.00 L 829.50,228.00 L 829.50,229.00 L 829.50,230.00 L 829.50,231.00 L 829.50,232.00 L 829.50,233.00 L 829.50,234.00 L 829.50,235.00 L 829.50,236.00 L 829.50,237.00 L 829.50,238.00 L 829.50,239.00 L 829.50,240.00 L 829.50,241.00 L 829.50,242.00 L 829.50,243.00 L 829.50,244.00 L 829.50,245.00 L 829.50,246.00 L 829.50,247.00 L 829.50,248.00 L 829.50,249.00 L 829.50,250.00 L 829.50,251.00 L 829.50,252.00 L 829.50,253.00 L 829.50,254.00 L 829.50,255.00 L 829.00,255.50 L 828.00,255.50 L 827.00,255.50 L 826.00,255.50 L 825.00,255.50 L 824.50,255.00 L 824.00,254.50 L 823.00,254.50 L 822.00,254.50 L 821.50,254.00 L 821.00,253.50 L 820.50,253.00 L 820.00,252.50 L 819.00,252.50 L 818.00,252.50 L 817.00,252.50 L 816.50,253.00 L 816.00,253.50 L 815.00,253.50 L 814.50,254.00 L 814.00,254.50 L 813.00,254.50 L 812.50,255.00 L 812.00,255.50 L 811.00,255.50 L 810.00,255.50 L 809.00,255.50 L 808.00,255.50 L 807.00,255.50 L 806.50,256.00 L 806.00,256.50 Z" fill="#FFFFFF" fill-rule="evenodd"/>
  <path d="M 851.00,255.50 L 850.00,255.50 L 849.00,255.50 L 848.00,255.50 L 847.00,255.50 L 846.00,255.50 L 845.00,255.50 L 844.00,255.50 L 843.50,255.00 L 843.00,254.50 L 842.50,254.00 L 842.50,253.00 L 842.50,252.00 L 842.50,251.00 L 842.50,250.00 L 842.50,249.00 L 842.50,248.00 L 842.50,247.00 L 842.50,246.00 L 842.50,245.00 L 842.50,244.00 L 842.50,243.00 L 842.50,242.00 L 842.50,241.00 L 842.50,240.00 L 842.50,239.00 L 842.50,238.00 L 842.50,237.00 L 842.50,236.00 L 842.50,235.00 L 842.50,234.00 L 842.50,233.00 L 842.50,232.00 L 842.50,231.00 L 842.50,230.00 L 842.50,229.00 L 842.50,228.00 L 842.50,227.00 L 842.50,226.00 L 842.50,225.00 L 842.50,224.00 L 842.50,223.00 L 842.50,222.00 L 842.50,221.00 L 842.50,220.00 L 842.50,219.00 L 842.50,218.00 L 842.50,217.00 L 842.50,216.00 L 842.50,215.00 L 842.50,214.00 L 842.50,213.00 L 842.50,212.00 L 842.50,211.00 L 842.50,210.00 L 843.00,209.50 L 843.50,209.00 L 844.00,208.50 L 845.00,208.50 L 846.00,208.50 L 847.00,208.50 L 848.00,208.50 L 848.50,209.00 L 849.00,209.50 L 850.00,209.50 L 851.00,209.50 L 851.50,210.00 L 852.00,210.50 L 853.00,210.50 L 854.00,210.50 L 855.00,210.50 L 855.50,210.00 L 856.00,209.50 L 857.00,209.50 L 858.00,209.50 L 858.50,209.00 L 859.00,208.50 L 860.00,208.50 L 861.00,208.50 L 861.50,208.00 L 862.00,207.50 L 863.00,207.50 L 864.00,207.50 L 865.00,207.50 L 866.00,207.50 L 867.00,207.50 L 868.00,207.50 L 869.00,207.50 L 870.00,207.50 L 870.50,208.00 L 871.00,208.50 L 872.00,208.50 L 873.00,208.50 L 873.50,209.00 L 874.00,209.50 L 875.00,209.50 L 875.50,210.00 L 876.00,210.50 L 876.50,211.00 L 876.50,212.00 L 876.00,212.50 L 875.50,213.00 L 875.50,214.00 L 875.00,214.50 L 874.50,215.00 L 874.50,216.00 L 874.00,216.50 L 873.50,217.00 L 873.00,217.50 L 872.00,217.50 L 871.50,218.00 L 871.00,218.50 L 870.50,218.00 L 870.00,217.50 L 869.00,217.50 L 868.00,217.50 L 867.00,217.50 L 866.50,217.00 L 866.00,216.50 L 865.00,216.50 L 864.00,216.50 L 863.00,216.50 L 862.00,216.50 L 861.00,216.50 L 860.50,217.00 L 860.00,217.50 L 859.00,217.50 L 858.00,217.50 L 857.50,218.00 L 857.00,218.50 L 856.50,219.00 L 856.00,219.50 L 855.50,220.00 L 855.00,220.50 L 854.50,221.00 L 854.00,221.50 L 853.50,222.00 L 853.50,223.00 L 853.00,223.50 L 852.50,224.00 L 852.50,225.00 L 852.50,226.00 L 852.50,227.00 L 852.50,228.00 L 852.50,229.00 L 852.50,230.00 L 852.50,231.00 L 852.50,232.00 L 852.50,233.00 L 852.50,234.00 L 852.50,235.00 L 852.50,236.00 L 852.50,237.00 L 852.50,238.00 L 852.50,239.00 L 852.50,240.00 L 852.50,241.00 L 852.50,242.00 L 852.50,243.00 L 852.50,244.00 L 852.50,245.00 L 852.50,246.00 L 852.50,247.00 L 852.50,248.00 L 852.50,249.00 L 852.50,250.00 L 852.50,251.00 L 852.50,252.00 L 852.50,253.00 L 852.50,254.00 L 852.00,254.50 L 851.50,255.00 L 851.00,255.50 Z" fill="#FFFFFF" fill-rule="evenodd"/>
  <path d="M 910.00,256.50 L 909.00,256.50 L 908.00,256.50 L 907.00,256.50 L 906.00,256.50 L 905.00,256.50 L 904.50,256.00 L 904.00,255.50 L 903.00,255.50 L 902.00,255.50 L 901.00,255.50 L 900.00,255.50 L 899.00,255.50 L 898.50,255.00 L 898.00,254.50 L 897.00,254.50 L 896.50,254.00 L 896.00,253.50 L 895.00,253.50 L 894.50,253.00 L 894.00,252.50 L 893.00,252.50 L 892.50,252.00 L 892.00,251.50 L 891.50,251.00 L 891.00,250.50 L 890.50,250.00 L 890.00,249.50 L 889.00,249.50 L 888.50,249.00 L 888.50,248.00 L 888.00,247.50 L 887.50,247.00 L 887.00,246.50 L 886.50,246.00 L 886.00,245.50 L 885.50,245.00 L 885.50,244.00 L 885.00,243.50 L 884.50,243.00 L 884.50,242.00 L 884.00,241.50 L 883.50,241.00 L 883.50,240.00 L 883.50,239.00 L 883.50,238.00 L 883.00,237.50 L 882.50,237.00 L 882.50,236.00 L 882.50,235.00 L 882.50,234.00 L 882.50,233.00 L 882.50,232.00 L 882.50,231.00 L 882.50,230.00 L 882.50,229.00 L 882.50,228.00 L 882.50,227.00 L 882.50,226.00 L 883.00,225.50 L 883.50,225.00 L 883.50,224.00 L 883.50,223.00 L 884.00,222.50 L 884.50,222.00 L 884.50,221.00 L 884.50,220.00 L 885.00,219.50 L 885.50,219.00 L 886.00,218.50 L 886.50,218.00 L 886.50,217.00 L 887.00,216.50 L 887.50,216.00 L 888.00,215.50 L 888.50,215.00 L 889.00,214.50 L 889.50,214.00 L 890.00,213.50 L 890.50,213.00 L 891.00,212.50 L 891.50,212.00 L 892.00,211.50 L 892.50,211.00 L 893.00,210.50 L 894.00,210.50 L 894.50,210.00 L 895.00,209.50 L 896.00,209.50 L 896.50,209.00 L 897.00,208.50 L 898.00,208.50 L 899.00,208.50 L 899.50,208.00 L 900.00,207.50 L 901.00,207.50 L 902.00,207.50 L 903.00,207.50 L 904.00,207.50 L 905.00,207.50 L 906.00,207.50 L 907.00,207.50 L 908.00,207.50 L 909.00,207.50 L 910.00,207.50 L 911.00,207.50 L 912.00,207.50 L 913.00,207.50 L 913.50,208.00 L 914.00,208.50 L 915.00,208.50 L 916.00,208.50 L 916.50,209.00 L 917.00,209.50 L 918.00,209.50 L 918.50,210.00 L 919.00,210.50 L 919.50,211.00 L 920.00,211.50 L 921.00,211.50 L 921.50,212.00 L 922.00,212.50 L 922.50,213.00 L 923.00,213.50 L 923.50,214.00 L 924.00,214.50 L 924.50,215.00 L 925.00,215.50 L 925.50,216.00 L 925.50,217.00 L 926.00,217.50 L 926.50,218.00 L 926.50,219.00 L 927.00,219.50 L 927.50,220.00 L 927.50,221.00 L 928.00,221.50 L 928.50,222.00 L 928.50,223.00 L 928.50,224.00 L 928.50,225.00 L 929.00,225.50 L 929.50,226.00 L 929.50,227.00 L 929.50,228.00 L 929.50,229.00 L 929.50,230.00 L 929.50,231.00 L 929.50,232.00 L 929.50,233.00 L 929.00,233.50 L 928.50,234.00 L 928.00,234.50 L 927.00,234.50 L 926.50,235.00 L 926.00,235.50 L 925.00,235.50 L 924.00,235.50 L 923.00,235.50 L 922.00,235.50 L 921.00,235.50 L 920.00,235.50 L 919.00,235.50 L 918.00,235.50 L 917.00,235.50 L 916.00,235.50 L 915.00,235.50 L 914.00,235.50 L 913.00,235.50 L 912.00,235.50 L 911.00,235.50 L 910.00,235.50 L 909.00,235.50 L 908.00,235.50 L 907.00,235.50 L 906.00,235.50 L 905.00,235.50 L 904.00,235.50 L 903.00,235.50 L 902.00,235.50 L 901.00,235.50 L 900.00,235.50 L 899.00,235.50 L 898.00,235.50 L 897.00,235.50 L 896.00,235.50 L 895.00,235.50 L 894.50,236.00 L 894.50,237.00 L 894.50,238.00 L 894.50,239.00 L 894.50,240.00 L 895.00,240.50 L 895.50,241.00 L 895.50,242.00 L 896.00,242.50 L 896.50,243.00 L 897.00,243.50 L 897.50,244.00 L 898.00,244.50 L 899.00,244.50 L 899.50,245.00 L 900.00,245.50 L 901.00,245.50 L 901.50,246.00 L 902.00,246.50 L 903.00,246.50 L 903.50,247.00 L 904.00,247.50 L 905.00,247.50 L 906.00,247.50 L 907.00,247.50 L 908.00,247.50 L 909.00,247.50 L 910.00,247.50 L 911.00,247.50 L 912.00,247.50 L 913.00,247.50 L 913.50,247.00 L 914.00,246.50 L 915.00,246.50 L 916.00,246.50 L 916.50,246.00 L 917.00,245.50 L 918.00,245.50 L 918.50,245.00 L 919.00,244.50 L 920.00,244.50 L 920.50,244.00 L 921.00,243.50 L 922.00,243.50 L 923.00,243.50 L 924.00,243.50 L 924.50,244.00 L 925.00,244.50 L 925.50,245.00 L 925.50,246.00 L 925.50,247.00 L 925.50,248.00 L 925.00,248.50 L 924.50,249.00 L 924.50,250.00 L 924.00,250.50 L 923.00,250.50 L 922.50,251.00 L 922.00,251.50 L 921.50,252.00 L 921.00,252.50 L 920.50,253.00 L 920.00,253.50 L 919.00,253.50 L 918.50,254.00 L 918.00,254.50 L 917.00,254.50 L 916.00,254.50 L 915.50,255.00 L 915.00,255.50 L 914.00,255.50 L 913.00,255.50 L 912.00,255.50 L 911.00,255.50 L 910.50,256.00 L 910.00,256.50 Z" fill="#FFFFFF" fill-rule="evenodd"/>
  <path d="M 539.50,227.00 L 539.50,226.00 L 539.50,225.00 L 539.50,224.00 L 539.00,223.50 L 538.50,223.00 L 538.50,222.00 L 538.50,221.00 L 538.00,220.50 L 537.50,220.00 L 537.00,219.50 L 536.50,219.00 L 536.00,218.50 L 535.50,218.00 L 535.00,217.50 L 534.00,217.50 L 533.00,217.50 L 532.50,217.00 L 532.00,216.50 L 531.00,216.50 L 530.00,216.50 L 529.00,216.50 L 528.00,216.50 L 527.00,216.50 L 526.00,216.50 L 525.00,216.50 L 524.00,216.50 L 523.50,217.00 L 523.00,217.50 L 522.00,217.50 L 521.50,218.00 L 521.00,218.50 L 520.00,218.50 L 519.50,219.00 L 519.00,219.50 L 518.50,220.00 L 518.00,220.50 L 517.50,221.00 L 517.50,222.00 L 517.00,222.50 L 516.50,223.00 L 516.50,224.00 L 516.00,224.50 L 515.50,225.00 L 515.50,226.00 L 515.50,227.00 L 516.00,227.50 L 517.00,227.50 L 518.00,227.50 L 519.00,227.50 L 520.00,227.50 L 521.00,227.50 L 522.00,227.50 L 523.00,227.50 L 524.00,227.50 L 525.00,227.50 L 526.00,227.50 L 527.00,227.50 L 528.00,227.50 L 529.00,227.50 L 530.00,227.50 L 531.00,227.50 L 532.00,227.50 L 533.00,227.50 L 534.00,227.50 L 535.00,227.50 L 536.00,227.50 L 537.00,227.50 L 538.00,227.50 L 539.00,227.50 L 539.50,227.00 Z" fill="#FFFFFF" fill-rule="evenodd"/>
  <path d="M 918.50,227.00 L 918.50,226.00 L 918.50,225.00 L 918.00,224.50 L 917.50,224.00 L 917.50,223.00 L 917.00,222.50 L 916.50,222.00 L 916.50,221.00 L 916.00,220.50 L 915.50,220.00 L 915.00,219.50 L 914.50,219.00 L 914.00,218.50 L 913.50,218.00 L 913.00,217.50 L 912.00,217.50 L 911.50,217.00 L 911.00,216.50 L 910.00,216.50 L 909.00,216.50 L 908.00,216.50 L 907.00,216.50 L 906.00,216.50 L 905.00,216.50 L 904.00,216.50 L 903.00,216.50 L 902.00,216.50 L 901.50,217.00 L 901.00,217.50 L 900.00,217.50 L 899.50,218.00 L 899.00,218.50 L 898.00,218.50 L 897.50,219.00 L 897.00,219.50 L 896.50,220.00 L 896.00,220.50 L 895.50,221.00 L 895.50,222.00 L 895.00,222.50 L 894.50,223.00 L 894.50,224.00 L 894.50,225.00 L 894.50,226.00 L 894.50,227.00 L 895.00,227.50 L 896.00,227.50 L 897.00,227.50 L 898.00,227.50 L 899.00,227.50 L 900.00,227.50 L 901.00,227.50 L 902.00,227.50 L 903.00,227.50 L 904.00,227.50 L 905.00,227.50 L 906.00,227.50 L 907.00,227.50 L 908.00,227.50 L 909.00,227.50 L 910.00,227.50 L 911.00,227.50 L 912.00,227.50 L 913.00,227.50 L 914.00,227.50 L 915.00,227.50 L 916.00,227.50 L 917.00,227.50 L 918.00,227.50 L 918.50,227.00 Z" fill="#FFFFFF" fill-rule="evenodd"/>
  <path d="M 584.50,248.00 L 585.00,247.50 L 586.00,247.50 L 586.50,247.00 L 587.00,246.50 L 588.00,246.50 L 588.50,246.00 L 589.00,245.50 L 589.50,245.00 L 590.00,244.50 L 590.50,244.00 L 591.00,243.50 L 591.50,243.00 L 591.50,242.00 L 591.50,241.00 L 591.50,240.00 L 592.00,239.50 L 592.50,239.00 L 592.50,238.00 L 592.50,237.00 L 592.50,236.00 L 592.50,235.00 L 592.50,234.00 L 592.00,233.50 L 591.00,233.50 L 590.00,233.50 L 589.00,233.50 L 588.00,233.50 L 587.00,233.50 L 586.50,234.00 L 586.00,234.50 L 585.00,234.50 L 584.00,234.50 L 583.50,235.00 L 583.00,235.50 L 582.00,235.50 L 581.00,235.50 L 580.50,236.00 L 580.00,236.50 L 579.00,236.50 L 578.00,236.50 L 577.50,237.00 L 577.00,237.50 L 576.00,237.50 L 575.00,237.50 L 574.50,238.00 L 574.00,238.50 L 573.50,239.00 L 573.00,239.50 L 572.50,240.00 L 572.00,240.50 L 571.50,241.00 L 571.50,242.00 L 571.50,243.00 L 571.50,244.00 L 571.50,245.00 L 571.50,246.00 L 572.00,246.50 L 572.50,247.00 L 573.00,247.50 L 574.00,247.50 L 574.50,248.00 L 575.00,248.50 L 576.00,248.50 L 577.00,248.50 L 578.00,248.50 L 579.00,248.50 L 580.00,248.50 L 581.00,248.50 L 582.00,248.50 L 583.00,248.50 L 584.00,248.50 L 584.50,248.00 Z" fill="#FFFFFF" fill-rule="evenodd"/>
  <path d="M 811.50,248.00 L 812.00,247.50 L 813.00,247.50 L 813.50,247.00 L 814.00,246.50 L 815.00,246.50 L 815.50,246.00 L 816.00,245.50 L 816.50,245.00 L 817.00,244.50 L 817.50,244.00 L 818.00,243.50 L 818.50,243.00 L 818.50,242.00 L 819.00,241.50 L 819.50,241.00 L 819.50,240.00 L 819.50,239.00 L 819.50,238.00 L 819.50,237.00 L 819.50,236.00 L 819.50,235.00 L 819.50,234.00 L 819.00,233.50 L 818.00,233.50 L 817.00,233.50 L 816.00,233.50 L 815.00,233.50 L 814.00,233.50 L 813.50,234.00 L 813.00,234.50 L 812.00,234.50 L 811.00,234.50 L 810.50,235.00 L 810.00,235.50 L 809.00,235.50 L 808.00,235.50 L 807.50,236.00 L 807.00,236.50 L 806.00,236.50 L 805.00,236.50 L 804.50,237.00 L 804.00,237.50 L 803.00,237.50 L 802.00,237.50 L 801.50,238.00 L 801.00,238.50 L 800.00,238.50 L 799.50,239.00 L 799.00,239.50 L 798.50,240.00 L 798.50,241.00 L 798.00,241.50 L 797.50,242.00 L 797.50,243.00 L 797.50,244.00 L 797.50,245.00 L 798.00,245.50 L 798.50,246.00 L 799.00,246.50 L 799.50,247.00 L 800.00,247.50 L 801.00,247.50 L 801.50,248.00 L 802.00,248.50 L 803.00,248.50 L 804.00,248.50 L 805.00,248.50 L 806.00,248.50 L 807.00,248.50 L 808.00,248.50 L 809.00,248.50 L 810.00,248.50 L 811.00,248.50 L 811.50,248.00 Z" fill="#FFFFFF" fill-rule="evenodd"/>
</svg>