<svg version="1.1" id="Layer_1" xmlns="http://www.w3.org/2000/svg" xmlns:xlink="http://www.w3.org/1999/xlink" x="0px" y="0px"
	 width="100%" viewBox="0 0 896 896" enable-background="new 0 0 896 896" xml:space="preserve">
<path fill="#000000" opacity="1.000000" stroke="none" 
	d="
M220.000031,473.385895 
	C187.687668,473.395386 155.875290,473.403381 124.062920,473.413300 
	C122.397423,473.413818 120.711670,473.266327 119.069740,473.467865 
	C109.043472,474.698730 110.657928,472.731934 110.651993,465.518738 
	C110.627747,436.038177 110.751511,406.556702 110.524117,377.077881 
	C110.484848,371.987213 112.019386,370.587067 117.034470,370.611786 
	C156.007874,370.803864 194.982819,370.783264 233.956665,370.651459 
	C238.150787,370.637238 240.576355,371.965698 242.614548,375.689453 
	C254.333054,397.098969 258.823090,419.600555 253.219696,443.621429 
	C251.022049,453.042511 246.648102,461.745636 243.291992,470.785797 
	C242.399872,473.188843 240.584763,473.398285 238.487961,473.390991 
	C232.492050,473.370056 226.496017,473.384338 220.000031,473.385895 
z"/>
<path fill="#000000" opacity="1.000000" stroke="none" 
	d="
M196.000000,541.963318 
	C169.504227,541.971191 143.508453,541.979187 117.512672,541.986816 
	C110.363525,541.988892 110.107483,541.739441 110.102997,534.824463 
	C110.094025,520.993530 110.054588,507.162537 110.084656,493.331696 
	C110.101616,485.529572 110.156792,485.752228 117.767250,485.611084 
	C155.583664,484.909729 193.397049,485.848755 231.211777,485.698944 
	C238.510773,485.670013 238.377243,485.684875 236.727066,492.568176 
	C233.086990,507.751862 232.528870,522.865479 238.303116,537.741394 
	C238.657379,538.654053 239.135468,539.583801 238.647949,541.963379 
	C224.598633,541.963379 210.549316,541.963379 196.000000,541.963318 
z"/>
<path fill="#000000" opacity="1.000000" stroke="none" 
	d="
M256.760681,470.890198 
	C259.511688,463.507874 262.258209,456.537781 264.742065,449.475342 
	C265.734161,446.654388 267.363098,445.617249 270.284607,445.637054 
	C283.608459,445.727478 296.933777,445.739777 310.257324,445.628357 
	C313.733185,445.599304 315.070312,447.141968 315.068085,450.403198 
	C315.047943,479.550323 315.032806,508.697418 315.060425,537.844543 
	C315.063049,540.628052 313.691040,541.804016 311.107117,541.806396 
	C293.286530,541.822998 275.465881,541.798767 257.645355,541.832642 
	C254.360306,541.838928 253.091537,539.637634 251.907623,537.131958 
	C245.776001,524.154907 245.769943,510.710327 248.995193,497.091766 
	C251.065506,488.349945 253.577209,479.719482 256.760681,470.890198 
z"/>
<path fill="#000000" opacity="1.000000" stroke="none" 
	d="
M407.873535,403.511017 
	C410.786713,395.003967 413.728760,386.865601 416.337311,378.621674 
	C417.402893,375.253937 419.074554,373.738434 422.726562,373.799011 
	C435.529572,374.011475 432.498352,372.919464 436.203583,383.205719 
	C439.012512,391.003815 441.525391,398.908539 444.389191,407.416840 
	C446.607727,404.794159 446.881287,402.146210 447.578979,399.748016 
	C449.668823,392.564362 451.721619,385.364960 453.535309,378.108337 
	C454.265228,375.187866 455.706238,373.870056 458.691650,373.863037 
	C476.339081,373.821381 473.059021,372.710632 469.093323,386.599426 
	C465.076355,400.667816 460.530426,414.585144 456.505768,428.651489 
	C455.329865,432.761169 453.256256,434.238190 449.068848,434.114777 
	C434.553192,433.686981 437.859650,436.338135 433.203979,422.594116 
	C430.963440,415.979706 428.923431,409.297516 426.773682,402.652100 
	C426.573669,402.033752 426.236572,401.459717 425.506287,399.871887 
	C424.651611,402.197235 424.018646,403.755798 423.502289,405.352081 
	C420.840851,413.579926 418.114258,421.788788 415.619446,430.067230 
	C414.759308,432.921509 413.243073,434.014130 410.286652,434.151154 
	C396.558258,434.787262 396.565002,434.854675 392.645752,421.906799 
	C388.357666,407.740417 384.052277,393.579315 379.775024,379.409668 
	C378.325439,374.607544 378.850800,373.784882 383.979919,373.844543 
	C398.962952,374.018768 395.783539,371.876312 399.527863,385.220459 
	C401.528412,392.350098 403.682159,399.436798 406.084198,407.624847 
	C406.986847,405.594635 407.377533,404.715942 407.873535,403.511017 
z"/>
<path fill="#000000" opacity="1.000000" stroke="none" 
	d="
M309.605652,433.990662 
	C297.160858,434.017365 285.173340,433.950684 273.188263,434.091919 
	C269.104584,434.140045 267.285553,433.214600 267.609650,428.431885 
	C268.828644,410.442841 264.727203,393.410950 257.291656,377.095398 
	C256.497101,375.351990 254.991776,373.709381 255.970444,371.524261 
	C257.434326,370.325226 259.166595,370.692413 260.788208,370.682587 
	C277.267334,370.582703 293.747711,370.602631 310.225403,370.400238 
	C314.677979,370.345551 315.185089,373.041565 314.937622,376.266418 
	C314.223175,385.575958 314.335144,394.895386 314.419525,404.212494 
	C314.491882,412.198425 314.703003,420.185211 315.000519,428.166077 
	C315.134766,431.768311 314.042419,434.019379 309.605652,433.990662 
z"/>
<path fill="#000000" opacity="1.000000" stroke="none" 
	d="
M452.115784,532.932861 
	C452.103241,534.921143 452.047424,536.421082 452.091400,537.918152 
	C452.185516,541.123718 450.603668,542.309021 447.481750,542.277954 
	C431.714233,542.121216 434.962097,543.840027 434.676056,530.329712 
	C434.517456,522.839539 434.724030,515.342224 434.631775,507.849762 
	C434.540314,500.424133 431.600311,497.267761 425.055481,497.277344 
	C417.624146,497.288239 413.197632,501.318176 413.178802,508.167877 
	C413.152771,517.659668 413.064697,527.153564 413.230743,536.642578 
	C413.299316,540.563232 412.168091,542.428589 407.864990,542.325500 
	C393.188171,541.973938 395.750793,543.992798 395.650513,530.239136 
	C395.496338,509.091736 395.767944,487.940826 395.549622,466.794617 
	C395.500031,461.988922 396.921814,460.415253 401.754822,460.584869 
	C414.717804,461.039673 413.010895,458.929138 413.171753,472.091858 
	C413.226349,476.561401 413.180359,481.032135 413.180359,485.254242 
	C415.196686,486.280548 416.171295,485.075562 417.297607,484.501801 
	C422.108521,482.051025 427.111115,480.540161 432.602997,480.633240 
	C445.129181,480.845490 451.874054,487.865723 452.087952,501.470154 
	C452.250244,511.792114 452.118591,522.118713 452.115784,532.932861 
z"/>
<path fill="#000000" opacity="1.000000" stroke="none" 
	d="
M678.226501,473.002014 
	C678.229858,477.600861 678.229858,481.707733 678.229858,486.713715 
	C684.679321,483.552887 690.182251,480.553528 696.734924,480.607635 
	C709.401184,480.712280 716.644714,486.911896 717.093628,499.501923 
	C717.550293,512.307861 717.195618,525.141968 717.259521,537.963440 
	C717.273926,540.843750 716.154724,542.272888 713.147400,542.253418 
	C696.587341,542.146118 700.020386,543.930969 699.717468,529.867249 
	C699.556152,522.377197 699.780945,514.879150 699.643250,507.388123 
	C699.505005,499.870148 696.702637,497.089752 689.836365,497.251343 
	C682.710999,497.419067 678.239075,501.491913 678.224121,507.884735 
	C678.201538,517.542847 678.073608,527.203979 678.275696,536.857910 
	C678.363159,541.035217 676.739319,542.392517 672.687439,542.310913 
	C658.619202,542.027405 660.781738,543.658386 660.704773,530.356140 
	C660.582397,509.208679 660.789001,488.058868 660.581787,466.912750 
	C660.535767,462.224426 661.800110,460.415741 666.729492,460.590118 
	C679.929993,461.057037 678.020386,458.864410 678.226501,473.002014 
z"/>
<path fill="#000000" opacity="1.000000" stroke="none" 
	d="
M566.422607,542.233948 
	C561.287170,539.587769 556.964478,541.291199 552.260254,542.736084 
	C543.752747,545.349182 535.530823,543.973755 529.167419,537.359924 
	C523.513123,531.483093 522.318237,524.169128 524.835754,516.427490 
	C528.032104,506.598633 539.751099,501.403900 551.835449,504.425476 
	C554.854309,505.180298 557.770569,506.344940 560.736877,507.322174 
	C562.175964,502.024078 560.690369,498.659637 556.068909,496.693085 
	C549.589539,493.935852 543.699219,495.870544 538.008179,499.146667 
	C536.452515,500.042175 535.319458,501.672302 533.072083,501.898804 
	C530.451355,499.435944 529.027527,496.039001 527.295532,492.860962 
	C526.095337,490.658661 527.167603,489.141083 528.880371,487.717041 
	C538.612976,479.625244 557.486877,477.683075 568.642700,483.782654 
	C575.605896,487.589874 578.734558,493.970581 578.954651,501.514648 
	C579.304382,513.503418 579.021118,525.509705 579.099976,537.507935 
	C579.121887,540.849976 577.828125,542.464783 574.360718,542.269470 
	C571.868774,542.129150 569.362671,542.241577 566.422607,542.233948 
M548.385071,516.702454 
	C544.842163,517.820923 541.809265,519.666870 541.762207,523.777954 
	C541.723633,527.156006 544.138000,529.366394 547.138306,530.211853 
	C551.205505,531.357910 555.321777,531.108582 559.135559,528.819031 
	C561.457764,527.424927 561.942261,525.377563 561.890320,522.886169 
	C561.837402,520.348877 560.517761,518.899719 558.341675,518.024170 
	C555.391602,516.837280 552.371521,516.012756 548.385071,516.702454 
z"/>
<path fill="#000000" opacity="1.000000" stroke="none" 
	d="
M677.996582,409.380920 
	C669.258301,409.380432 661.019104,409.380432 652.623840,409.380432 
	C654.114624,416.872437 660.051636,420.763153 667.782471,420.075836 
	C671.639954,419.732880 675.382202,418.816101 678.637085,416.665741 
	C681.074280,415.055573 682.601868,415.319580 684.404785,417.753906 
	C691.307800,427.074951 690.626465,429.343933 679.396973,432.969788 
	C662.703125,438.359955 646.418884,433.898193 638.127319,421.662109 
	C629.220886,408.518738 631.907776,389.046570 644.011414,379.018829 
	C656.097717,369.005402 674.433777,369.526611 685.022217,380.316101 
	C691.861511,387.285309 693.976257,396.048492 694.014771,405.496674 
	C694.025635,408.168884 692.706543,409.412048 689.986328,409.361908 
	C686.157471,409.291229 682.325989,409.367828 677.996582,409.380920 
M674.613464,391.847778 
	C670.281433,387.127167 664.999756,386.280212 659.190613,388.336212 
	C655.582153,389.613281 653.071533,392.003693 652.737732,396.590881 
	C660.678772,396.590881 668.298584,396.590881 675.777649,396.590881 
	C676.479065,394.687134 675.601562,393.599182 674.613464,391.847778 
z"/>
<path fill="#000000" opacity="1.000000" stroke="none" 
	d="
M507.009705,409.376831 
	C501.747253,409.376526 496.982544,409.376526 492.135193,409.376526 
	C492.930939,415.151825 496.048859,418.448517 501.522858,419.515015 
	C507.266541,420.634033 512.886353,420.038940 517.841614,416.736603 
	C520.582520,414.909973 522.366333,415.234741 523.844971,418.065765 
	C523.998352,418.359344 524.201721,418.627747 524.391785,418.901031 
	C530.416016,427.565216 530.108826,428.581177 520.307678,432.399078 
	C503.598480,438.907928 485.275391,434.070587 477.033051,420.974396 
	C470.368896,410.385803 470.841553,394.684021 478.128632,384.579865 
	C485.586578,374.238770 498.949127,369.677643 511.906067,373.060944 
	C528.709229,377.448578 533.895325,394.240204 533.249634,406.376343 
	C533.100159,409.185516 531.088623,409.338287 528.984497,409.342133 
	C521.825500,409.355164 514.666443,409.365662 507.009705,409.376831 
M509.690613,388.585754 
	C500.268555,385.549194 493.369812,388.590698 492.234863,396.778961 
	C499.944153,397.026123 507.575500,397.568176 515.393860,396.391907 
	C515.213867,392.364868 513.024109,390.484772 509.690613,388.585754 
z"/>
<path fill="#000000" opacity="1.000000" stroke="none" 
	d="
M462.558075,529.273560 
	C451.745056,508.711975 461.211365,486.588379 482.737640,481.368652 
	C500.974670,476.946503 517.119202,489.446228 518.960388,509.413635 
	C519.730591,517.765991 519.393127,518.163391 510.935760,518.178223 
	C501.780518,518.194336 492.625122,518.139954 483.469818,518.140808 
	C481.663055,518.140991 479.810333,517.865295 477.592773,518.910278 
	C478.192902,523.288391 480.972321,525.906433 484.757019,527.432800 
	C491.221436,530.039978 497.606659,529.242676 503.387238,525.560059 
	C506.579315,523.526550 508.276703,524.246887 510.286865,527.080444 
	C516.370117,535.655640 515.900146,537.393982 505.955353,541.054810 
	C488.562225,547.457458 472.370911,543.165100 462.558075,529.273560 
M479.594330,500.097900 
	C478.635986,501.566376 477.121307,502.842377 477.944305,505.188721 
	C485.687256,505.188721 493.442780,505.188721 501.499451,505.188721 
	C500.762573,500.282745 498.212524,497.607544 494.159729,496.224884 
	C488.785492,494.391357 484.085999,495.526459 479.594330,500.097900 
z"/>
<path fill="#000000" opacity="1.000000" stroke="none" 
	d="
M742.695374,386.020264 
	C742.869873,372.646851 740.661743,374.039948 754.446838,373.828705 
	C757.583313,373.780640 760.035522,374.399719 760.760620,378.382629 
	C767.147644,374.741516 773.352173,372.239929 780.460693,372.577759 
	C791.455811,373.100250 798.714417,379.807770 798.959167,390.802399 
	C799.244568,403.621704 798.998596,416.452087 799.095093,429.276825 
	C799.120605,432.668945 797.749878,434.106537 794.345276,434.050232 
	C779.020142,433.796844 781.929260,435.278442 781.700745,422.251617 
	C781.566406,414.591980 781.736267,406.927338 781.647888,399.266357 
	C781.563293,391.933319 778.604126,388.932648 771.819763,389.040039 
	C764.529724,389.155457 760.161926,393.053040 760.137573,399.572449 
	C760.102112,409.066467 760.005066,418.563263 760.193848,428.053711 
	C760.276184,432.191925 759.066528,434.148499 754.558350,434.059296 
	C740.463684,433.780365 742.861816,435.259613 742.720337,422.493622 
	C742.587524,410.502411 742.695007,398.508575 742.695374,386.020264 
z"/>
<path fill="#000000" opacity="1.000000" stroke="none" 
	d="
M537.572083,427.322510 
	C535.979370,425.993042 535.441711,424.746918 536.429688,423.153870 
	C536.956482,422.304535 537.454834,421.437286 537.953308,420.570862 
	C542.402771,412.836884 542.365601,412.906342 550.031677,416.888794 
	C554.485840,419.202698 559.133362,421.025574 564.331787,420.650055 
	C567.270203,420.437775 570.500305,419.921478 571.130493,416.716339 
	C571.810364,413.258667 568.301941,412.518646 565.924744,411.776886 
	C561.648926,410.442688 557.183533,409.730896 552.856628,408.542847 
	C541.093445,405.312958 536.872437,399.850098 537.670959,389.139496 
	C538.299377,380.710632 545.618164,374.203827 555.709534,372.576843 
	C565.521301,370.994934 574.515991,372.848969 583.069153,377.755554 
	C586.180664,379.540497 586.708923,381.395203 585.025452,384.628662 
	C580.760803,392.819702 580.899536,392.863892 572.782654,389.260742 
	C568.293213,387.267914 563.665466,386.092255 558.720581,387.349060 
	C556.987000,387.789642 555.521057,388.654327 555.418274,390.585419 
	C555.325195,392.336395 556.692261,393.268646 558.156067,393.756195 
	C560.357117,394.489319 562.620911,395.037750 564.866150,395.634003 
	C568.719666,396.657501 572.676208,397.386261 576.416992,398.722015 
	C584.951355,401.769470 589.179138,407.725830 589.054138,415.916229 
	C588.931885,423.927155 583.874939,430.752106 575.551941,433.170135 
	C562.209473,437.046509 549.528503,435.463348 537.572083,427.322510 
z"/>
<path fill="#000000" opacity="1.000000" stroke="none" 
	d="
M625.898926,536.882324 
	C623.807190,533.090515 623.377930,529.370300 623.454285,525.466675 
	C623.597412,518.150085 623.469604,510.828583 623.561462,503.510468 
	C623.605164,500.027924 622.868164,497.620911 618.573975,498.175507 
	C615.164490,498.615845 613.672607,496.876953 613.874146,493.487976 
	C613.982605,491.663940 614.037231,489.819366 613.894897,488.001404 
	C613.604858,484.298615 614.833435,482.177368 618.922546,482.671417 
	C622.837402,483.144440 623.612549,481.016907 623.647217,477.586090 
	C623.756042,466.831604 623.856995,466.832611 634.456970,466.884918 
	C640.666260,466.915558 640.991150,467.231232 641.034485,473.301178 
	C641.044006,474.631989 641.161682,475.975616 641.022217,477.291382 
	C640.584961,481.416809 642.379456,483.206512 646.468628,482.665222 
	C651.002747,482.065002 653.015137,483.889343 652.426147,488.540039 
	C652.218750,490.177643 652.287964,491.870300 652.407593,493.525055 
	C652.654724,496.943695 651.160828,498.210388 647.739441,498.273376 
	C641.072083,498.396179 641.063232,498.551575 641.056091,505.320557 
	C641.050293,510.810028 640.944885,516.304016 641.128296,521.787781 
	C641.298279,526.869873 642.853699,528.308472 647.586731,527.274780 
	C650.489441,526.640747 651.423950,527.671509 652.243164,530.083069 
	C655.674194,540.182739 654.193848,542.769836 643.419067,543.721558 
	C636.768555,544.309082 630.399780,543.277100 625.898926,536.882324 
z"/>
<path fill="#000000" opacity="1.000000" stroke="none" 
	d="
M630.250610,423.863037 
	C632.475891,431.689392 631.770508,432.879456 624.272156,434.301514 
	C622.478027,434.641785 620.666260,435.003235 618.849792,435.091766 
	C607.670410,435.636719 601.054321,429.425964 600.801086,417.962677 
	C600.628479,410.147064 600.653198,402.322784 600.801819,394.506409 
	C600.867432,391.052856 599.951599,388.974792 596.083496,389.360321 
	C592.466858,389.720795 591.386536,387.807617 591.633545,384.543213 
	C591.758667,382.889160 591.780151,381.205353 591.623901,379.556305 
	C591.259033,375.705261 592.428284,373.408081 596.786133,373.807220 
	C599.859619,374.088715 600.984375,372.421661 600.744385,369.550476 
	C600.730530,369.385406 600.727356,369.215302 600.750305,369.051941 
	C601.223206,365.686005 599.094482,361.221649 602.132935,359.148804 
	C605.873291,356.596954 610.845154,358.127441 615.292358,358.244873 
	C617.251465,358.296600 618.253357,359.534821 618.254272,361.532074 
	C618.254944,363.029022 618.298767,364.525879 618.307251,366.022888 
	C618.348022,373.227631 618.338379,373.335632 625.738098,373.861023 
	C628.506714,374.057587 629.652588,375.122192 629.442322,377.861908 
	C629.315308,379.516602 629.220825,381.209564 629.422791,382.846954 
	C630.011047,387.616547 628.571838,390.200073 623.226501,389.394592 
	C619.558472,388.841827 618.161194,390.690308 618.274292,394.311066 
	C618.440369,399.629578 618.297363,404.957275 618.313965,410.280975 
	C618.339905,418.607117 619.356567,419.468658 627.757324,418.271179 
	C629.684692,419.441711 629.315247,421.752502 630.250610,423.863037 
z"/>
<path fill="#000000" opacity="1.000000" stroke="none" 
	d="
M590.614380,510.999939 
	C590.607544,495.534882 590.697388,480.568726 590.523071,465.605652 
	C590.481506,462.034302 591.330688,460.510040 595.206726,460.619049 
	C609.784912,461.029083 607.891785,458.450867 607.945801,473.233582 
	C608.022400,494.184113 607.831116,515.136475 608.054260,536.084900 
	C608.105347,540.878662 606.643372,542.442322 601.834167,542.353638 
	C590.575439,542.146118 590.577026,542.356567 590.603027,530.954529 
	C590.617798,524.469666 590.611267,517.984802 590.614380,510.999939 
z"/>
<path fill="#000000" opacity="1.000000" stroke="none" 
	d="
M726.149170,374.811157 
	C736.433167,370.944489 736.974548,371.474182 737.165771,382.090912 
	C737.256409,387.122437 736.466797,389.512451 730.421448,389.328583 
	C722.046997,389.073822 718.646057,393.514465 718.786621,401.844849 
	C718.938293,410.834625 718.769958,419.829834 718.927490,428.819397 
	C718.994446,432.636047 717.594421,434.141449 713.657166,434.071075 
	C699.900330,433.825134 701.828064,435.363007 701.745300,422.523254 
	C701.653015,408.202759 701.857422,393.879181 701.641235,379.561371 
	C701.574463,375.137482 703.176086,373.458649 707.462830,373.853088 
	C709.443726,374.035370 711.461914,373.964020 713.453369,373.843750 
	C716.547974,373.656799 719.128967,374.199982 719.754272,378.182617 
	C722.050537,376.960358 723.923767,375.963257 726.149170,374.811157 
z"/>
</svg>
